%TF.GenerationSoftware,KiCad,Pcbnew,10.0.3-2.fc44*%
%TF.CreationDate,2026-06-04T15:11:56-05:00*%
%TF.ProjectId,cn-910-simple-breakout,636e2d39-3130-42d7-9369-6d706c652d62,rev?*%
%TF.SameCoordinates,Original*%
%TF.FileFunction,Legend,Top*%
%TF.FilePolarity,Positive*%
%FSLAX46Y46*%
G04 Gerber Fmt 4.6, Leading zero omitted, Abs format (unit mm)*
G04 Created by KiCad (PCBNEW 10.0.3-2.fc44) date 2026-06-04 15:11:56*
%MOMM*%
%LPD*%
G01*
G04 APERTURE LIST*
%ADD10C,0.150000*%
%ADD11C,0.120000*%
%ADD12C,0.127000*%
%ADD13C,0.152400*%
G04 APERTURE END LIST*
D10*
X169678754Y-103664456D02*
X169106335Y-103563441D01*
X169274693Y-104068517D02*
X168567587Y-103361410D01*
X168567587Y-103361410D02*
X168836961Y-103092036D01*
X168836961Y-103092036D02*
X168937976Y-103058364D01*
X168937976Y-103058364D02*
X169005319Y-103058364D01*
X169005319Y-103058364D02*
X169106335Y-103092036D01*
X169106335Y-103092036D02*
X169207350Y-103193051D01*
X169207350Y-103193051D02*
X169241022Y-103294067D01*
X169241022Y-103294067D02*
X169241022Y-103361410D01*
X169241022Y-103361410D02*
X169207350Y-103462425D01*
X169207350Y-103462425D02*
X168937976Y-103731799D01*
X169308365Y-102755319D02*
X169308365Y-102687975D01*
X169308365Y-102687975D02*
X169342037Y-102586960D01*
X169342037Y-102586960D02*
X169510396Y-102418601D01*
X169510396Y-102418601D02*
X169611411Y-102384929D01*
X169611411Y-102384929D02*
X169678754Y-102384929D01*
X169678754Y-102384929D02*
X169779770Y-102418601D01*
X169779770Y-102418601D02*
X169847113Y-102485945D01*
X169847113Y-102485945D02*
X169914457Y-102620632D01*
X169914457Y-102620632D02*
X169914457Y-103428754D01*
X169914457Y-103428754D02*
X170352189Y-102991021D01*
X166948421Y-97881819D02*
X167519849Y-97881819D01*
X167234135Y-98881819D02*
X167234135Y-97881819D01*
X167853183Y-98881819D02*
X167853183Y-97881819D01*
X167853183Y-97881819D02*
X168234135Y-97881819D01*
X168234135Y-97881819D02*
X168329373Y-97929438D01*
X168329373Y-97929438D02*
X168376992Y-97977057D01*
X168376992Y-97977057D02*
X168424611Y-98072295D01*
X168424611Y-98072295D02*
X168424611Y-98215152D01*
X168424611Y-98215152D02*
X168376992Y-98310390D01*
X168376992Y-98310390D02*
X168329373Y-98358009D01*
X168329373Y-98358009D02*
X168234135Y-98405628D01*
X168234135Y-98405628D02*
X167853183Y-98405628D01*
X168757945Y-97881819D02*
X169376992Y-97881819D01*
X169376992Y-97881819D02*
X169043659Y-98262771D01*
X169043659Y-98262771D02*
X169186516Y-98262771D01*
X169186516Y-98262771D02*
X169281754Y-98310390D01*
X169281754Y-98310390D02*
X169329373Y-98358009D01*
X169329373Y-98358009D02*
X169376992Y-98453247D01*
X169376992Y-98453247D02*
X169376992Y-98691342D01*
X169376992Y-98691342D02*
X169329373Y-98786580D01*
X169329373Y-98786580D02*
X169281754Y-98834200D01*
X169281754Y-98834200D02*
X169186516Y-98881819D01*
X169186516Y-98881819D02*
X168900802Y-98881819D01*
X168900802Y-98881819D02*
X168805564Y-98834200D01*
X168805564Y-98834200D02*
X168757945Y-98786580D01*
X141945180Y-94816666D02*
X141230895Y-94816666D01*
X141230895Y-94816666D02*
X141088038Y-94769047D01*
X141088038Y-94769047D02*
X140992800Y-94673809D01*
X140992800Y-94673809D02*
X140945180Y-94530952D01*
X140945180Y-94530952D02*
X140945180Y-94435714D01*
X140945180Y-95816666D02*
X140945180Y-95245238D01*
X140945180Y-95530952D02*
X141945180Y-95530952D01*
X141945180Y-95530952D02*
X141802323Y-95435714D01*
X141802323Y-95435714D02*
X141707085Y-95340476D01*
X141707085Y-95340476D02*
X141659466Y-95245238D01*
X145245180Y-91578571D02*
X145245180Y-91102381D01*
X145245180Y-91102381D02*
X144768990Y-91054762D01*
X144768990Y-91054762D02*
X144816609Y-91102381D01*
X144816609Y-91102381D02*
X144864228Y-91197619D01*
X144864228Y-91197619D02*
X144864228Y-91435714D01*
X144864228Y-91435714D02*
X144816609Y-91530952D01*
X144816609Y-91530952D02*
X144768990Y-91578571D01*
X144768990Y-91578571D02*
X144673752Y-91626190D01*
X144673752Y-91626190D02*
X144435657Y-91626190D01*
X144435657Y-91626190D02*
X144340419Y-91578571D01*
X144340419Y-91578571D02*
X144292800Y-91530952D01*
X144292800Y-91530952D02*
X144245180Y-91435714D01*
X144245180Y-91435714D02*
X144245180Y-91197619D01*
X144245180Y-91197619D02*
X144292800Y-91102381D01*
X144292800Y-91102381D02*
X144340419Y-91054762D01*
X145149942Y-92007143D02*
X145197561Y-92054762D01*
X145197561Y-92054762D02*
X145245180Y-92150000D01*
X145245180Y-92150000D02*
X145245180Y-92388095D01*
X145245180Y-92388095D02*
X145197561Y-92483333D01*
X145197561Y-92483333D02*
X145149942Y-92530952D01*
X145149942Y-92530952D02*
X145054704Y-92578571D01*
X145054704Y-92578571D02*
X144959466Y-92578571D01*
X144959466Y-92578571D02*
X144816609Y-92530952D01*
X144816609Y-92530952D02*
X144245180Y-91959524D01*
X144245180Y-91959524D02*
X144245180Y-92578571D01*
X145245180Y-92911905D02*
X145245180Y-93578571D01*
X145245180Y-93578571D02*
X144245180Y-93150000D01*
X144911847Y-94388095D02*
X144245180Y-94388095D01*
X145292800Y-94150000D02*
X144578514Y-93911905D01*
X144578514Y-93911905D02*
X144578514Y-94530952D01*
X145245180Y-95340476D02*
X145245180Y-95150000D01*
X145245180Y-95150000D02*
X145197561Y-95054762D01*
X145197561Y-95054762D02*
X145149942Y-95007143D01*
X145149942Y-95007143D02*
X145007085Y-94911905D01*
X145007085Y-94911905D02*
X144816609Y-94864286D01*
X144816609Y-94864286D02*
X144435657Y-94864286D01*
X144435657Y-94864286D02*
X144340419Y-94911905D01*
X144340419Y-94911905D02*
X144292800Y-94959524D01*
X144292800Y-94959524D02*
X144245180Y-95054762D01*
X144245180Y-95054762D02*
X144245180Y-95245238D01*
X144245180Y-95245238D02*
X144292800Y-95340476D01*
X144292800Y-95340476D02*
X144340419Y-95388095D01*
X144340419Y-95388095D02*
X144435657Y-95435714D01*
X144435657Y-95435714D02*
X144673752Y-95435714D01*
X144673752Y-95435714D02*
X144768990Y-95388095D01*
X144768990Y-95388095D02*
X144816609Y-95340476D01*
X144816609Y-95340476D02*
X144864228Y-95245238D01*
X144864228Y-95245238D02*
X144864228Y-95054762D01*
X144864228Y-95054762D02*
X144816609Y-94959524D01*
X144816609Y-94959524D02*
X144768990Y-94911905D01*
X144768990Y-94911905D02*
X144673752Y-94864286D01*
X144245180Y-96388095D02*
X144245180Y-95816667D01*
X144245180Y-96102381D02*
X145245180Y-96102381D01*
X145245180Y-96102381D02*
X145102323Y-96007143D01*
X145102323Y-96007143D02*
X145007085Y-95911905D01*
X145007085Y-95911905D02*
X144959466Y-95816667D01*
X145245180Y-97245238D02*
X145245180Y-97054762D01*
X145245180Y-97054762D02*
X145197561Y-96959524D01*
X145197561Y-96959524D02*
X145149942Y-96911905D01*
X145149942Y-96911905D02*
X145007085Y-96816667D01*
X145007085Y-96816667D02*
X144816609Y-96769048D01*
X144816609Y-96769048D02*
X144435657Y-96769048D01*
X144435657Y-96769048D02*
X144340419Y-96816667D01*
X144340419Y-96816667D02*
X144292800Y-96864286D01*
X144292800Y-96864286D02*
X144245180Y-96959524D01*
X144245180Y-96959524D02*
X144245180Y-97150000D01*
X144245180Y-97150000D02*
X144292800Y-97245238D01*
X144292800Y-97245238D02*
X144340419Y-97292857D01*
X144340419Y-97292857D02*
X144435657Y-97340476D01*
X144435657Y-97340476D02*
X144673752Y-97340476D01*
X144673752Y-97340476D02*
X144768990Y-97292857D01*
X144768990Y-97292857D02*
X144816609Y-97245238D01*
X144816609Y-97245238D02*
X144864228Y-97150000D01*
X144864228Y-97150000D02*
X144864228Y-96959524D01*
X144864228Y-96959524D02*
X144816609Y-96864286D01*
X144816609Y-96864286D02*
X144768990Y-96816667D01*
X144768990Y-96816667D02*
X144673752Y-96769048D01*
X145245180Y-97673810D02*
X145245180Y-98340476D01*
X145245180Y-98340476D02*
X144245180Y-97911905D01*
X144245180Y-99245238D02*
X144245180Y-98673810D01*
X144245180Y-98959524D02*
X145245180Y-98959524D01*
X145245180Y-98959524D02*
X145102323Y-98864286D01*
X145102323Y-98864286D02*
X145007085Y-98769048D01*
X145007085Y-98769048D02*
X144959466Y-98673810D01*
X170747759Y-98337728D02*
X171319187Y-98337728D01*
X171033473Y-99337728D02*
X171033473Y-98337728D01*
X171652521Y-99337728D02*
X171652521Y-98337728D01*
X171652521Y-98337728D02*
X172033473Y-98337728D01*
X172033473Y-98337728D02*
X172128711Y-98385347D01*
X172128711Y-98385347D02*
X172176330Y-98432966D01*
X172176330Y-98432966D02*
X172223949Y-98528204D01*
X172223949Y-98528204D02*
X172223949Y-98671061D01*
X172223949Y-98671061D02*
X172176330Y-98766299D01*
X172176330Y-98766299D02*
X172128711Y-98813918D01*
X172128711Y-98813918D02*
X172033473Y-98861537D01*
X172033473Y-98861537D02*
X171652521Y-98861537D01*
X173081092Y-98337728D02*
X172890616Y-98337728D01*
X172890616Y-98337728D02*
X172795378Y-98385347D01*
X172795378Y-98385347D02*
X172747759Y-98432966D01*
X172747759Y-98432966D02*
X172652521Y-98575823D01*
X172652521Y-98575823D02*
X172604902Y-98766299D01*
X172604902Y-98766299D02*
X172604902Y-99147251D01*
X172604902Y-99147251D02*
X172652521Y-99242489D01*
X172652521Y-99242489D02*
X172700140Y-99290109D01*
X172700140Y-99290109D02*
X172795378Y-99337728D01*
X172795378Y-99337728D02*
X172985854Y-99337728D01*
X172985854Y-99337728D02*
X173081092Y-99290109D01*
X173081092Y-99290109D02*
X173128711Y-99242489D01*
X173128711Y-99242489D02*
X173176330Y-99147251D01*
X173176330Y-99147251D02*
X173176330Y-98909156D01*
X173176330Y-98909156D02*
X173128711Y-98813918D01*
X173128711Y-98813918D02*
X173081092Y-98766299D01*
X173081092Y-98766299D02*
X172985854Y-98718680D01*
X172985854Y-98718680D02*
X172795378Y-98718680D01*
X172795378Y-98718680D02*
X172700140Y-98766299D01*
X172700140Y-98766299D02*
X172652521Y-98813918D01*
X172652521Y-98813918D02*
X172604902Y-98909156D01*
X160345641Y-83889745D02*
X160917069Y-83889745D01*
X160631355Y-84889745D02*
X160631355Y-83889745D01*
X161250403Y-84889745D02*
X161250403Y-83889745D01*
X161250403Y-83889745D02*
X161631355Y-83889745D01*
X161631355Y-83889745D02*
X161726593Y-83937364D01*
X161726593Y-83937364D02*
X161774212Y-83984983D01*
X161774212Y-83984983D02*
X161821831Y-84080221D01*
X161821831Y-84080221D02*
X161821831Y-84223078D01*
X161821831Y-84223078D02*
X161774212Y-84318316D01*
X161774212Y-84318316D02*
X161726593Y-84365935D01*
X161726593Y-84365935D02*
X161631355Y-84413554D01*
X161631355Y-84413554D02*
X161250403Y-84413554D01*
X162774212Y-84889745D02*
X162202784Y-84889745D01*
X162488498Y-84889745D02*
X162488498Y-83889745D01*
X162488498Y-83889745D02*
X162393260Y-84032602D01*
X162393260Y-84032602D02*
X162298022Y-84127840D01*
X162298022Y-84127840D02*
X162202784Y-84175459D01*
X166948421Y-88036157D02*
X167519849Y-88036157D01*
X167234135Y-89036157D02*
X167234135Y-88036157D01*
X167853183Y-89036157D02*
X167853183Y-88036157D01*
X167853183Y-88036157D02*
X168234135Y-88036157D01*
X168234135Y-88036157D02*
X168329373Y-88083776D01*
X168329373Y-88083776D02*
X168376992Y-88131395D01*
X168376992Y-88131395D02*
X168424611Y-88226633D01*
X168424611Y-88226633D02*
X168424611Y-88369490D01*
X168424611Y-88369490D02*
X168376992Y-88464728D01*
X168376992Y-88464728D02*
X168329373Y-88512347D01*
X168329373Y-88512347D02*
X168234135Y-88559966D01*
X168234135Y-88559966D02*
X167853183Y-88559966D01*
X168805564Y-88131395D02*
X168853183Y-88083776D01*
X168853183Y-88083776D02*
X168948421Y-88036157D01*
X168948421Y-88036157D02*
X169186516Y-88036157D01*
X169186516Y-88036157D02*
X169281754Y-88083776D01*
X169281754Y-88083776D02*
X169329373Y-88131395D01*
X169329373Y-88131395D02*
X169376992Y-88226633D01*
X169376992Y-88226633D02*
X169376992Y-88321871D01*
X169376992Y-88321871D02*
X169329373Y-88464728D01*
X169329373Y-88464728D02*
X168757945Y-89036157D01*
X168757945Y-89036157D02*
X169376992Y-89036157D01*
X150545113Y-84897626D02*
X151116541Y-84897626D01*
X150830827Y-85897626D02*
X150830827Y-84897626D01*
X151449875Y-85897626D02*
X151449875Y-84897626D01*
X151449875Y-84897626D02*
X151830827Y-84897626D01*
X151830827Y-84897626D02*
X151926065Y-84945245D01*
X151926065Y-84945245D02*
X151973684Y-84992864D01*
X151973684Y-84992864D02*
X152021303Y-85088102D01*
X152021303Y-85088102D02*
X152021303Y-85230959D01*
X152021303Y-85230959D02*
X151973684Y-85326197D01*
X151973684Y-85326197D02*
X151926065Y-85373816D01*
X151926065Y-85373816D02*
X151830827Y-85421435D01*
X151830827Y-85421435D02*
X151449875Y-85421435D01*
X152878446Y-85230959D02*
X152878446Y-85897626D01*
X152640351Y-84850007D02*
X152402256Y-85564292D01*
X152402256Y-85564292D02*
X153021303Y-85564292D01*
X154631594Y-89415572D02*
X155203022Y-89415572D01*
X154917308Y-90415572D02*
X154917308Y-89415572D01*
X155536356Y-90415572D02*
X155536356Y-89415572D01*
X155536356Y-89415572D02*
X155917308Y-89415572D01*
X155917308Y-89415572D02*
X156012546Y-89463191D01*
X156012546Y-89463191D02*
X156060165Y-89510810D01*
X156060165Y-89510810D02*
X156107784Y-89606048D01*
X156107784Y-89606048D02*
X156107784Y-89748905D01*
X156107784Y-89748905D02*
X156060165Y-89844143D01*
X156060165Y-89844143D02*
X156012546Y-89891762D01*
X156012546Y-89891762D02*
X155917308Y-89939381D01*
X155917308Y-89939381D02*
X155536356Y-89939381D01*
X157012546Y-89415572D02*
X156536356Y-89415572D01*
X156536356Y-89415572D02*
X156488737Y-89891762D01*
X156488737Y-89891762D02*
X156536356Y-89844143D01*
X156536356Y-89844143D02*
X156631594Y-89796524D01*
X156631594Y-89796524D02*
X156869689Y-89796524D01*
X156869689Y-89796524D02*
X156964927Y-89844143D01*
X156964927Y-89844143D02*
X157012546Y-89891762D01*
X157012546Y-89891762D02*
X157060165Y-89987000D01*
X157060165Y-89987000D02*
X157060165Y-90225095D01*
X157060165Y-90225095D02*
X157012546Y-90320333D01*
X157012546Y-90320333D02*
X156964927Y-90367953D01*
X156964927Y-90367953D02*
X156869689Y-90415572D01*
X156869689Y-90415572D02*
X156631594Y-90415572D01*
X156631594Y-90415572D02*
X156536356Y-90367953D01*
X156536356Y-90367953D02*
X156488737Y-90320333D01*
X168928754Y-94864456D02*
X168356335Y-94763441D01*
X168524693Y-95268517D02*
X167817587Y-94561410D01*
X167817587Y-94561410D02*
X168086961Y-94292036D01*
X168086961Y-94292036D02*
X168187976Y-94258364D01*
X168187976Y-94258364D02*
X168255319Y-94258364D01*
X168255319Y-94258364D02*
X168356335Y-94292036D01*
X168356335Y-94292036D02*
X168457350Y-94393051D01*
X168457350Y-94393051D02*
X168491022Y-94494067D01*
X168491022Y-94494067D02*
X168491022Y-94561410D01*
X168491022Y-94561410D02*
X168457350Y-94662425D01*
X168457350Y-94662425D02*
X168187976Y-94931799D01*
X169602189Y-94191021D02*
X169198128Y-94595082D01*
X169400159Y-94393051D02*
X168693052Y-93685945D01*
X168693052Y-93685945D02*
X168726724Y-93854303D01*
X168726724Y-93854303D02*
X168726724Y-93988990D01*
X168726724Y-93988990D02*
X168693052Y-94090006D01*
%TO.C,R2*%
D11*
X167089733Y-102914940D02*
X167425266Y-102579407D01*
X167828660Y-103653867D02*
X168164193Y-103318334D01*
%TO.C,TP3*%
X167260326Y-99125000D02*
X169160326Y-99125000D01*
X167260326Y-101025000D02*
X167260326Y-99125000D01*
X169160326Y-99125000D02*
X169160326Y-101025000D01*
X169160326Y-101025000D02*
X167260326Y-101025000D01*
%TO.C,J3*%
D12*
X158500000Y-102700000D02*
X158500000Y-104700000D01*
X161000000Y-100200000D02*
X163000000Y-100200000D01*
X161000000Y-107200000D02*
X163000000Y-107200000D01*
X165500000Y-102700000D02*
X165500000Y-104700000D01*
%TO.C,J1*%
D13*
X142550000Y-88100014D02*
X142550000Y-102199986D01*
X142550000Y-102199986D02*
X144532500Y-102199986D01*
X144532500Y-88100014D02*
X142550000Y-88100014D01*
X147550000Y-90932508D02*
X147550000Y-88100014D01*
X147550000Y-102199986D02*
X147549999Y-99367508D01*
X149482000Y-90386014D02*
X148288200Y-91402014D01*
X149482000Y-90386014D02*
X149482000Y-92418014D01*
X149482000Y-92418014D02*
X148288200Y-91402014D01*
%TO.C,TP6*%
D11*
X172809664Y-96382909D02*
G75*
G02*
X169809664Y-96382909I-1500000J0D01*
G01*
X169809664Y-96382909D02*
G75*
G02*
X172809664Y-96382909I1500000J0D01*
G01*
%TO.C,TP1*%
X159007546Y-80634926D02*
X159007546Y-83634926D01*
X159007546Y-83634926D02*
X164507546Y-83634926D01*
X164507546Y-80634926D02*
X159007546Y-80634926D01*
X164507546Y-83634926D02*
X164507546Y-80634926D01*
%TO.C,TP2*%
X167260326Y-89279338D02*
X169160326Y-89279338D01*
X167260326Y-91179338D02*
X167260326Y-89279338D01*
X169160326Y-89279338D02*
X169160326Y-91179338D01*
X169160326Y-91179338D02*
X167260326Y-91179338D01*
%TO.C,TP4*%
X152607018Y-82942807D02*
G75*
G02*
X149607018Y-82942807I-1500000J0D01*
G01*
X149607018Y-82942807D02*
G75*
G02*
X152607018Y-82942807I1500000J0D01*
G01*
%TO.C,J2*%
D12*
X158500000Y-92899639D02*
X158500000Y-94899639D01*
X161000000Y-90399639D02*
X163000000Y-90399639D01*
X161000000Y-97399639D02*
X163000000Y-97399639D01*
X165500000Y-92899639D02*
X165500000Y-94899639D01*
%TO.C,TP5*%
D11*
X156693499Y-87460753D02*
G75*
G02*
X153693499Y-87460753I-1500000J0D01*
G01*
X153693499Y-87460753D02*
G75*
G02*
X156693499Y-87460753I1500000J0D01*
G01*
%TO.C,R1*%
X167089733Y-93114579D02*
X167425266Y-92779046D01*
X167828660Y-93853506D02*
X168164193Y-93517973D01*
%TD*%
M02*
