%TF.GenerationSoftware,KiCad,Pcbnew,10.0.3-2.fc44*%
%TF.CreationDate,2026-06-04T15:11:57-05:00*%
%TF.ProjectId,cn-910-simple-breakout,636e2d39-3130-42d7-9369-6d706c652d62,rev?*%
%TF.SameCoordinates,Original*%
%TF.FileFunction,Soldermask,Top*%
%TF.FilePolarity,Negative*%
%FSLAX46Y46*%
G04 Gerber Fmt 4.6, Leading zero omitted, Abs format (unit mm)*
G04 Created by KiCad (PCBNEW 10.0.3-2.fc44) date 2026-06-04 15:11:57*
%MOMM*%
%LPD*%
G01*
G04 APERTURE LIST*
G04 Aperture macros list*
%AMRoundRect*
0 Rectangle with rounded corners*
0 $1 Rounding radius*
0 $2 $3 $4 $5 $6 $7 $8 $9 X,Y pos of 4 corners*
0 Add a 4 corners polygon primitive as box body*
4,1,4,$2,$3,$4,$5,$6,$7,$8,$9,$2,$3,0*
0 Add four circle primitives for the rounded corners*
1,1,$1+$1,$2,$3*
1,1,$1+$1,$4,$5*
1,1,$1+$1,$6,$7*
1,1,$1+$1,$8,$9*
0 Add four rect primitives between the rounded corners*
20,1,$1+$1,$2,$3,$4,$5,0*
20,1,$1+$1,$4,$5,$6,$7,0*
20,1,$1+$1,$6,$7,$8,$9,0*
20,1,$1+$1,$8,$9,$2,$3,0*%
G04 Aperture macros list end*
%ADD10C,0.000000*%
%ADD11RoundRect,0.200000X0.053033X-0.335876X0.335876X-0.053033X-0.053033X0.335876X-0.335876X0.053033X0*%
%ADD12C,3.600000*%
%ADD13C,6.400000*%
%ADD14R,1.500000X1.500000*%
%ADD15C,2.529000*%
%ADD16C,2.829000*%
%ADD17R,0.800000X0.300000*%
%ADD18R,3.049999X1.300000*%
%ADD19C,2.000000*%
%ADD20C,2.600000*%
G04 APERTURE END LIST*
D10*
%TO.C,J1*%
G36*
X147050000Y-88850000D02*
G01*
X144850000Y-88850000D01*
X144850000Y-87750000D01*
X147050000Y-87750000D01*
X147050000Y-88850000D01*
G37*
G36*
X147050000Y-102550000D02*
G01*
X144850000Y-102550000D01*
X144850000Y-101450000D01*
X147050000Y-101450000D01*
X147050000Y-102550000D01*
G37*
%TD*%
D11*
%TO.C,R2*%
X167043600Y-103700000D03*
X168210326Y-102533274D03*
%TD*%
D12*
%TO.C,REF\u002A\u002A*%
X144775000Y-107875000D03*
D13*
X144775000Y-107875000D03*
%TD*%
D14*
%TO.C,TP3*%
X168210326Y-100075000D03*
%TD*%
D15*
%TO.C,J3*%
X162000000Y-103700000D03*
D16*
X159460000Y-101160000D03*
X164540000Y-101160000D03*
X159460000Y-106240000D03*
X164540000Y-106240000D03*
%TD*%
D17*
%TO.C,J1*%
X147450000Y-91400008D03*
X147450000Y-91900006D03*
X147450000Y-92400008D03*
X147450000Y-92900007D03*
X147450000Y-93400009D03*
X147450000Y-93900008D03*
X147450000Y-94400007D03*
X147450000Y-94900008D03*
X147450000Y-95400007D03*
X147450000Y-95900009D03*
X147450000Y-96400008D03*
X147450000Y-96900007D03*
X147450000Y-97400008D03*
X147450000Y-97900007D03*
X147450000Y-98400009D03*
X147450000Y-98900008D03*
D18*
X145525000Y-89500008D03*
X145525000Y-100799992D03*
%TD*%
D19*
%TO.C,TP6*%
X171309664Y-96382909D03*
%TD*%
D20*
%TO.C,TP1*%
X160507546Y-82134926D03*
X163047546Y-82134926D03*
%TD*%
D14*
%TO.C,TP2*%
X168210326Y-90229338D03*
%TD*%
D12*
%TO.C,REF\u002A\u002A*%
X169775000Y-82875000D03*
D13*
X169775000Y-82875000D03*
%TD*%
D19*
%TO.C,TP4*%
X151107018Y-82942807D03*
%TD*%
D12*
%TO.C,REF\u002A\u002A*%
X144775000Y-82875000D03*
D13*
X144775000Y-82875000D03*
%TD*%
D15*
%TO.C,J2*%
X162000000Y-93899639D03*
D16*
X159460000Y-91359639D03*
X164540000Y-91359639D03*
X159460000Y-96439639D03*
X164540000Y-96439639D03*
%TD*%
D12*
%TO.C,REF\u002A\u002A*%
X169775000Y-107875000D03*
D13*
X169775000Y-107875000D03*
%TD*%
D19*
%TO.C,TP5*%
X155193499Y-87460753D03*
%TD*%
D11*
%TO.C,R1*%
X167043600Y-93899639D03*
X168210326Y-92732913D03*
%TD*%
M02*
