%TF.GenerationSoftware,KiCad,Pcbnew,10.0.3-2.fc44*%
%TF.CreationDate,2026-06-06T01:37:18-05:00*%
%TF.ProjectId,cn-910-simple-breakout,636e2d39-3130-42d7-9369-6d706c652d62,rev?*%
%TF.SameCoordinates,Original*%
%TF.FileFunction,Plated,1,2,PTH,Drill*%
%TF.FilePolarity,Positive*%
%FSLAX46Y46*%
G04 Gerber Fmt 4.6, Leading zero omitted, Abs format (unit mm)*
G04 Created by KiCad (PCBNEW 10.0.3-2.fc44) date 2026-06-06 01:37:18*
%MOMM*%
%LPD*%
G01*
G04 APERTURE LIST*
%TA.AperFunction,ViaDrill*%
%ADD10C,0.300000*%
%TD*%
%TA.AperFunction,ComponentDrill*%
%ADD11C,1.000000*%
%TD*%
%TA.AperFunction,ComponentDrill*%
%ADD12C,1.300000*%
%TD*%
%TA.AperFunction,ComponentDrill*%
%ADD13C,1.550000*%
%TD*%
%TA.AperFunction,ComponentDrill*%
%ADD14C,1.750000*%
%TD*%
%TA.AperFunction,ComponentDrill*%
%ADD15C,3.200000*%
%TD*%
G04 APERTURE END LIST*
D10*
X146100000Y-93900000D03*
X148850000Y-92900008D03*
X148850000Y-94900000D03*
X148850000Y-96925000D03*
X149772222Y-92900008D03*
X149772222Y-94900000D03*
X149772222Y-96925000D03*
X150694444Y-92900008D03*
X150694444Y-94900000D03*
X150694444Y-96925000D03*
X151616667Y-92900008D03*
X151616667Y-94900000D03*
X151616667Y-96925000D03*
X152538889Y-92900008D03*
X152538889Y-94900000D03*
X152538889Y-96925000D03*
X153461111Y-92900008D03*
X153461111Y-94900000D03*
X153461111Y-96925000D03*
X154275000Y-97075000D03*
X154383333Y-92900008D03*
X154383333Y-94900000D03*
X154797891Y-97622891D03*
X155305556Y-92900008D03*
X155305556Y-94900000D03*
X155450000Y-98275000D03*
X156001760Y-95842166D03*
X156102109Y-98927109D03*
X156227778Y-92900008D03*
X156227778Y-94900000D03*
X156700000Y-96425000D03*
X156754220Y-99579220D03*
X157150000Y-92900008D03*
X157150000Y-94900000D03*
X157350000Y-97075000D03*
X157625000Y-99800000D03*
X158050000Y-92900000D03*
X158050000Y-94900000D03*
X158600000Y-103700000D03*
X159375000Y-103700000D03*
X160000000Y-103325000D03*
X160000000Y-104075000D03*
X161624999Y-95975000D03*
X161625000Y-91875000D03*
X161674999Y-105825000D03*
X161999999Y-96600000D03*
X162000000Y-90475000D03*
X162000000Y-91250000D03*
X162000000Y-97375000D03*
X162000000Y-98325000D03*
X162049999Y-106450000D03*
X162050000Y-107225000D03*
X162374999Y-95975000D03*
X162375000Y-91875000D03*
X162424999Y-105825000D03*
X162475000Y-98850000D03*
X162950000Y-99425000D03*
X166079752Y-102641930D03*
X166277690Y-94933331D03*
X167047357Y-95338854D03*
X167916335Y-95272646D03*
X168545309Y-94718156D03*
X169157732Y-94047801D03*
X169546703Y-91896046D03*
X169770154Y-93336067D03*
X170109469Y-89487736D03*
X170109469Y-90336024D03*
X170109469Y-91184312D03*
X170134297Y-92475365D03*
D11*
%TO.C,TP4*%
X151107018Y-82942807D03*
%TO.C,TP5*%
X155193499Y-87460753D03*
%TO.C,TP6*%
X171309664Y-96382909D03*
D12*
%TO.C,TP1*%
X160507546Y-82134926D03*
X163047546Y-82134926D03*
D13*
%TO.C,J2*%
X162000000Y-93899639D03*
%TO.C,J3*%
X162000000Y-103700000D03*
D14*
%TO.C,J2*%
X159460000Y-91359639D03*
X159460000Y-96439639D03*
%TO.C,J3*%
X159460000Y-101160000D03*
X159460000Y-106240000D03*
%TO.C,J2*%
X164540000Y-91359639D03*
X164540000Y-96439639D03*
%TO.C,J3*%
X164540000Y-101160000D03*
X164540000Y-106240000D03*
D15*
%TO.C,REF\u002A\u002A*%
X144775000Y-82875000D03*
X144775000Y-107875000D03*
X169775000Y-82875000D03*
X169775000Y-107875000D03*
M02*
