%TF.GenerationSoftware,KiCad,Pcbnew,10.0.3-2.fc44*%
%TF.CreationDate,2026-06-04T15:11:56-05:00*%
%TF.ProjectId,cn-910-simple-breakout,636e2d39-3130-42d7-9369-6d706c652d62,rev?*%
%TF.SameCoordinates,Original*%
%TF.FileFunction,Copper,L1,Top*%
%TF.FilePolarity,Positive*%
%FSLAX46Y46*%
G04 Gerber Fmt 4.6, Leading zero omitted, Abs format (unit mm)*
G04 Created by KiCad (PCBNEW 10.0.3-2.fc44) date 2026-06-04 15:11:56*
%MOMM*%
%LPD*%
G01*
G04 APERTURE LIST*
G04 Aperture macros list*
%AMRoundRect*
0 Rectangle with rounded corners*
0 $1 Rounding radius*
0 $2 $3 $4 $5 $6 $7 $8 $9 X,Y pos of 4 corners*
0 Add a 4 corners polygon primitive as box body*
4,1,4,$2,$3,$4,$5,$6,$7,$8,$9,$2,$3,0*
0 Add four circle primitives for the rounded corners*
1,1,$1+$1,$2,$3*
1,1,$1+$1,$4,$5*
1,1,$1+$1,$6,$7*
1,1,$1+$1,$8,$9*
0 Add four rect primitives between the rounded corners*
20,1,$1+$1,$2,$3,$4,$5,0*
20,1,$1+$1,$4,$5,$6,$7,0*
20,1,$1+$1,$6,$7,$8,$9,0*
20,1,$1+$1,$8,$9,$2,$3,0*%
G04 Aperture macros list end*
%TA.AperFunction,EtchedComponent*%
%ADD10C,0.000000*%
%TD*%
%TA.AperFunction,SMDPad,CuDef*%
%ADD11RoundRect,0.200000X0.053033X-0.335876X0.335876X-0.053033X-0.053033X0.335876X-0.335876X0.053033X0*%
%TD*%
%TA.AperFunction,ComponentPad*%
%ADD12C,3.600000*%
%TD*%
%TA.AperFunction,ConnectorPad*%
%ADD13C,6.400000*%
%TD*%
%TA.AperFunction,SMDPad,CuDef*%
%ADD14R,1.500000X1.500000*%
%TD*%
%TA.AperFunction,ComponentPad*%
%ADD15C,2.325000*%
%TD*%
%TA.AperFunction,ComponentPad*%
%ADD16C,2.625000*%
%TD*%
%TA.AperFunction,SMDPad,CuDef*%
%ADD17R,0.800000X0.300000*%
%TD*%
%TA.AperFunction,SMDPad,CuDef*%
%ADD18R,3.049999X1.300000*%
%TD*%
%TA.AperFunction,ComponentPad*%
%ADD19C,2.000000*%
%TD*%
%TA.AperFunction,ComponentPad*%
%ADD20C,2.600000*%
%TD*%
%TA.AperFunction,ViaPad*%
%ADD21C,0.600000*%
%TD*%
%TA.AperFunction,Conductor*%
%ADD22C,0.300000*%
%TD*%
%TA.AperFunction,Conductor*%
%ADD23C,0.200000*%
%TD*%
G04 APERTURE END LIST*
D10*
%TA.AperFunction,EtchedComponent*%
%TO.C,J1*%
G36*
X147050000Y-88850000D02*
G01*
X144850000Y-88850000D01*
X144850000Y-87750000D01*
X147050000Y-87750000D01*
X147050000Y-88850000D01*
G37*
%TD.AperFunction*%
%TA.AperFunction,EtchedComponent*%
G36*
X147050000Y-102550000D02*
G01*
X144850000Y-102550000D01*
X144850000Y-101450000D01*
X147050000Y-101450000D01*
X147050000Y-102550000D01*
G37*
%TD.AperFunction*%
%TD*%
D11*
%TO.P,R2,1*%
%TO.N,/REC_RF*%
X167043600Y-103700000D03*
%TO.P,R2,2*%
%TO.N,Net-(R2-Pad2)*%
X168210326Y-102533274D03*
%TD*%
D12*
%TO.P,REF\u002A\u002A,1*%
%TO.N,N/C*%
X144775000Y-107875000D03*
D13*
X144775000Y-107875000D03*
%TD*%
D14*
%TO.P,TP3,1,1_1*%
%TO.N,Net-(R2-Pad2)*%
X168210326Y-100075000D03*
%TD*%
D15*
%TO.P,J3,1*%
%TO.N,/REC_RF*%
X162000000Y-103700000D03*
D16*
%TO.P,J3,G1*%
%TO.N,GND*%
X159460000Y-101160000D03*
%TO.P,J3,G2*%
X164540000Y-101160000D03*
%TO.P,J3,G3*%
X159460000Y-106240000D03*
%TO.P,J3,G4*%
X164540000Y-106240000D03*
%TD*%
D17*
%TO.P,J1,1,LANC_SIG_1*%
%TO.N,/LANC_SIG*%
X147450000Y-91400008D03*
%TO.P,J1,2,XCPC_IN_2*%
%TO.N,/XCPC_IN*%
X147450000Y-91900006D03*
%TO.P,J1,3,IR_VIDEO_3*%
%TO.N,unconnected-(J1-IR_VIDEO-Pad3)*%
X147450000Y-92400008D03*
%TO.P,J1,4,AFC_F0_4*%
%TO.N,unconnected-(J1-AFC_F0-Pad4)*%
X147450000Y-92900007D03*
%TO.P,J1,5,BPF_MONI_5*%
%TO.N,unconnected-(J1-BPF_MONI-Pad5)*%
X147450000Y-93400009D03*
%TO.P,J1,6,PB_RF_6*%
%TO.N,/PB_RF*%
X147450000Y-93900008D03*
%TO.P,J1,7,RF_AGC_IN_7*%
%TO.N,unconnected-(J1-RF_AGC_IN-Pad7)*%
X147450000Y-94400007D03*
%TO.P,J1,8,REG_GND_8*%
%TO.N,GND*%
X147450000Y-94900008D03*
%TO.P,J1,9,RF_AGC_OUT_9*%
%TO.N,unconnected-(J1-RF_AGC_OUT-Pad9)*%
X147450000Y-95400007D03*
%TO.P,J1,10,REC_RF_10*%
%TO.N,/REC_RF*%
X147450000Y-95900009D03*
%TO.P,J1,11,RF_SWP_11*%
%TO.N,unconnected-(J1-RF_SWP-Pad11)*%
X147450000Y-96400008D03*
%TO.P,J1,12,CAP_FG_12*%
%TO.N,unconnected-(J1-CAP_FG-Pad12)*%
X147450000Y-96900007D03*
%TO.P,J1,13,EVF_BL_13*%
%TO.N,unconnected-(J1-EVF_BL-Pad13)*%
X147450000Y-97400008D03*
%TO.P,J1,14,EVF_BL_4.75V_14*%
%TO.N,unconnected-(J1-EVF_BL_4.75V-Pad14)*%
X147450000Y-97900007D03*
%TO.P,J1,15,VCO_15*%
%TO.N,unconnected-(J1-VCO-Pad15)*%
X147450000Y-98400009D03*
%TO.P,J1,16,EVF_VG_16*%
%TO.N,unconnected-(J1-EVF_VG-Pad16)*%
X147450000Y-98900008D03*
D18*
%TO.P,J1,P1,P1_P1*%
%TO.N,unconnected-(J1-PadP1)*%
X145525000Y-89500008D03*
%TO.P,J1,P2,P2_P2*%
%TO.N,unconnected-(J1-PadP2)*%
X145525000Y-100799992D03*
%TD*%
D19*
%TO.P,TP6,1,1_1*%
%TO.N,GND*%
X171309664Y-96382909D03*
%TD*%
D20*
%TO.P,TP1,1,1_1*%
%TO.N,GND*%
X160507546Y-82134926D03*
X163047546Y-82134926D03*
%TD*%
D14*
%TO.P,TP2,1,1_1*%
%TO.N,Net-(R1-Pad2)*%
X168210326Y-90229338D03*
%TD*%
D12*
%TO.P,REF\u002A\u002A,1*%
%TO.N,N/C*%
X169775000Y-82875000D03*
D13*
X169775000Y-82875000D03*
%TD*%
D19*
%TO.P,TP4,1,1_1*%
%TO.N,/LANC_SIG*%
X151107018Y-82942807D03*
%TD*%
D12*
%TO.P,REF\u002A\u002A,1*%
%TO.N,N/C*%
X144775000Y-82875000D03*
D13*
X144775000Y-82875000D03*
%TD*%
D15*
%TO.P,J2,1*%
%TO.N,/PB_RF*%
X162000000Y-93899639D03*
D16*
%TO.P,J2,G1*%
%TO.N,GND*%
X159460000Y-91359639D03*
%TO.P,J2,G2*%
X164540000Y-91359639D03*
%TO.P,J2,G3*%
X159460000Y-96439639D03*
%TO.P,J2,G4*%
X164540000Y-96439639D03*
%TD*%
D12*
%TO.P,REF\u002A\u002A,1*%
%TO.N,N/C*%
X169775000Y-107875000D03*
D13*
X169775000Y-107875000D03*
%TD*%
D19*
%TO.P,TP5,1,1_1*%
%TO.N,/XCPC_IN*%
X155193499Y-87460753D03*
%TD*%
D11*
%TO.P,R1,1*%
%TO.N,/PB_RF*%
X167043600Y-93899639D03*
%TO.P,R1,2*%
%TO.N,Net-(R1-Pad2)*%
X168210326Y-92732913D03*
%TD*%
D21*
%TO.N,GND*%
X149772222Y-92900008D03*
X162374999Y-95975000D03*
X152538889Y-94900000D03*
X161624999Y-95975000D03*
X149772222Y-96925000D03*
X157900000Y-94900000D03*
X156227778Y-92900008D03*
X150694444Y-92900008D03*
X153461111Y-96925000D03*
X162000000Y-90475000D03*
X159375000Y-103700000D03*
X162000000Y-97375000D03*
X162050000Y-107225000D03*
X162475000Y-98850000D03*
X162049999Y-106450000D03*
X150694444Y-96925000D03*
X146100000Y-93900000D03*
X157900000Y-92900000D03*
X158600000Y-103700000D03*
X160000000Y-104075000D03*
X156102109Y-98927109D03*
X152538889Y-92900008D03*
X154797891Y-97622891D03*
X160000000Y-103325000D03*
X157150000Y-92900008D03*
X152538889Y-96925000D03*
X161999999Y-96600000D03*
X156227778Y-94900000D03*
X151616667Y-94900000D03*
X149772222Y-94900000D03*
X162375000Y-91875000D03*
X162000000Y-91250000D03*
X151616667Y-92900008D03*
X157625000Y-99800000D03*
X162424999Y-105825000D03*
X157150000Y-94900000D03*
X148850000Y-96925000D03*
X148850000Y-94900000D03*
X150694444Y-94900000D03*
X161625000Y-91875000D03*
X161674999Y-105825000D03*
X156150000Y-95875000D03*
X155305556Y-94900000D03*
X155450000Y-98275000D03*
X151616667Y-96925000D03*
X153461111Y-94900000D03*
X153461111Y-92900008D03*
X157250000Y-96975000D03*
X155305556Y-92900008D03*
X156700000Y-96425000D03*
X154383333Y-94900000D03*
X154275000Y-97075000D03*
X156754220Y-99579220D03*
X154383333Y-92900008D03*
X148850000Y-92900008D03*
X162950000Y-99425000D03*
X162000000Y-98325000D03*
%TD*%
%TO.N,/REC_RF*%
D22*
X157425000Y-98750000D02*
X154575009Y-95900009D01*
X160725000Y-98750000D02*
X157425000Y-98750000D01*
X162000000Y-103674992D02*
X162000000Y-100025000D01*
X154575009Y-95900009D02*
X147450000Y-95900009D01*
X162000000Y-100025000D02*
X160725000Y-98750000D01*
D23*
X162000000Y-103700000D02*
X167043600Y-103700000D01*
%TO.N,Net-(R2-Pad2)*%
X168210326Y-100075000D02*
X168210326Y-102533274D01*
%TO.N,GND*%
D22*
X147450000Y-94900008D02*
X148400000Y-94900008D01*
X147450000Y-94900008D02*
X146500008Y-94900008D01*
X146500008Y-94900008D02*
X146500000Y-94900000D01*
%TO.N,/LANC_SIG*%
D23*
X148366782Y-90483226D02*
X148366782Y-85683043D01*
X148366782Y-85683043D02*
X151107018Y-82942807D01*
X147450000Y-91400008D02*
X148366782Y-90483226D01*
%TO.N,/XCPC_IN*%
X155193499Y-87460753D02*
X150754246Y-91900006D01*
X150754246Y-91900006D02*
X147450000Y-91900006D01*
%TO.N,/PB_RF*%
D22*
X162000000Y-93900000D02*
X147450008Y-93900000D01*
D23*
X162000000Y-93899639D02*
X166801963Y-93899639D01*
X147450008Y-93900000D02*
X147450000Y-93900008D01*
%TD*%
%TA.AperFunction,Conductor*%
%TO.N,GND*%
G36*
X158728143Y-94570185D02*
G01*
X158773898Y-94622989D01*
X158783842Y-94692147D01*
X158754817Y-94755703D01*
X158708556Y-94789061D01*
X158656643Y-94810563D01*
X158656628Y-94810570D01*
X158450875Y-94929362D01*
X158450861Y-94929371D01*
X158367359Y-94993443D01*
X158367359Y-94993444D01*
X159041100Y-95667185D01*
X158902220Y-95759982D01*
X158780343Y-95881859D01*
X158687546Y-96020739D01*
X158013805Y-95346998D01*
X158013804Y-95346998D01*
X157949732Y-95430500D01*
X157949723Y-95430514D01*
X157830931Y-95636267D01*
X157830924Y-95636282D01*
X157740009Y-95855772D01*
X157678511Y-96085282D01*
X157647501Y-96320830D01*
X157647500Y-96320847D01*
X157647500Y-96558430D01*
X157647501Y-96558447D01*
X157678511Y-96793995D01*
X157740009Y-97023505D01*
X157830924Y-97242995D01*
X157830931Y-97243010D01*
X157949721Y-97448761D01*
X157949727Y-97448768D01*
X158013805Y-97532278D01*
X158687545Y-96858538D01*
X158780343Y-96997419D01*
X158902220Y-97119296D01*
X159041099Y-97212092D01*
X158367359Y-97885832D01*
X158367851Y-97893342D01*
X158397212Y-97933551D01*
X158401367Y-98003297D01*
X158367156Y-98064217D01*
X158305439Y-98096971D01*
X158280523Y-98099500D01*
X157745808Y-98099500D01*
X157678769Y-98079815D01*
X157658127Y-98063181D01*
X155999410Y-96404463D01*
X154989682Y-95394735D01*
X154989678Y-95394732D01*
X154883136Y-95323544D01*
X154764753Y-95274508D01*
X154764747Y-95274506D01*
X154639080Y-95249509D01*
X154639078Y-95249509D01*
X148471739Y-95249509D01*
X148404700Y-95229824D01*
X148358945Y-95177020D01*
X148357494Y-95173717D01*
X148342261Y-95137618D01*
X148293796Y-95007676D01*
X148268824Y-94974318D01*
X148244406Y-94908856D01*
X148259256Y-94840583D01*
X148268822Y-94825698D01*
X148288289Y-94799693D01*
X148336107Y-94763900D01*
X148350000Y-94750008D01*
X148350000Y-94702190D01*
X148349999Y-94702172D01*
X148348449Y-94687756D01*
X148360854Y-94618996D01*
X148408464Y-94567859D01*
X148471738Y-94550500D01*
X158661104Y-94550500D01*
X158728143Y-94570185D01*
G37*
%TD.AperFunction*%
%TA.AperFunction,Conductor*%
G36*
X169836058Y-78000617D02*
G01*
X170220129Y-78017386D01*
X170230861Y-78018326D01*
X170609319Y-78068150D01*
X170619957Y-78070025D01*
X170992635Y-78152647D01*
X171003076Y-78155445D01*
X171367121Y-78270227D01*
X171377267Y-78273920D01*
X171729934Y-78420000D01*
X171739725Y-78424566D01*
X172078298Y-78600816D01*
X172087666Y-78606224D01*
X172409600Y-78811318D01*
X172418461Y-78817523D01*
X172721286Y-79049889D01*
X172729573Y-79056843D01*
X173010991Y-79314715D01*
X173018640Y-79322364D01*
X173276512Y-79603782D01*
X173283466Y-79612069D01*
X173515832Y-79914894D01*
X173522037Y-79923755D01*
X173727131Y-80245689D01*
X173732539Y-80255057D01*
X173908786Y-80593623D01*
X173913358Y-80603427D01*
X174059431Y-80956078D01*
X174063131Y-80966244D01*
X174177909Y-81330276D01*
X174180709Y-81340724D01*
X174263328Y-81713390D01*
X174265206Y-81724044D01*
X174315027Y-82102472D01*
X174315970Y-82113248D01*
X174332738Y-82497297D01*
X174332856Y-82502706D01*
X174332856Y-107497293D01*
X174332738Y-107502702D01*
X174315970Y-107886751D01*
X174315027Y-107897527D01*
X174265206Y-108275955D01*
X174263328Y-108286609D01*
X174180709Y-108659275D01*
X174177909Y-108669723D01*
X174063131Y-109033755D01*
X174059431Y-109043921D01*
X173913358Y-109396572D01*
X173908786Y-109406376D01*
X173732539Y-109744942D01*
X173727131Y-109754310D01*
X173522037Y-110076244D01*
X173515832Y-110085105D01*
X173283466Y-110387930D01*
X173276512Y-110396217D01*
X173018640Y-110677635D01*
X173010991Y-110685284D01*
X172729573Y-110943156D01*
X172721286Y-110950110D01*
X172418461Y-111182476D01*
X172409600Y-111188681D01*
X172087666Y-111393775D01*
X172078298Y-111399183D01*
X171739732Y-111575430D01*
X171729928Y-111580002D01*
X171377277Y-111726075D01*
X171367111Y-111729775D01*
X171003079Y-111844553D01*
X170992631Y-111847353D01*
X170619965Y-111929972D01*
X170609311Y-111931850D01*
X170230883Y-111981671D01*
X170220107Y-111982614D01*
X169836059Y-111999382D01*
X169830650Y-111999500D01*
X144836062Y-111999500D01*
X144830653Y-111999382D01*
X144446604Y-111982614D01*
X144435830Y-111981671D01*
X144373363Y-111973447D01*
X144057400Y-111931850D01*
X144046746Y-111929972D01*
X143674080Y-111847353D01*
X143663632Y-111844553D01*
X143299600Y-111729775D01*
X143289434Y-111726075D01*
X142936783Y-111580002D01*
X142926979Y-111575430D01*
X142588413Y-111399183D01*
X142579045Y-111393775D01*
X142257111Y-111188681D01*
X142248250Y-111182476D01*
X141945425Y-110950110D01*
X141937138Y-110943156D01*
X141655720Y-110685284D01*
X141648071Y-110677635D01*
X141390199Y-110396217D01*
X141383245Y-110387930D01*
X141150879Y-110085105D01*
X141144674Y-110076244D01*
X140939580Y-109754310D01*
X140934172Y-109744942D01*
X140757925Y-109406376D01*
X140753353Y-109396572D01*
X140607280Y-109043921D01*
X140603580Y-109033755D01*
X140522062Y-108775212D01*
X140488801Y-108669720D01*
X140486002Y-108659275D01*
X140403383Y-108286609D01*
X140401505Y-108275955D01*
X140388998Y-108180953D01*
X140351682Y-107897505D01*
X140350742Y-107886773D01*
X140342291Y-107693209D01*
X141074500Y-107693209D01*
X141074500Y-108056790D01*
X141110137Y-108418630D01*
X141181064Y-108775212D01*
X141181067Y-108775223D01*
X141286614Y-109123165D01*
X141425754Y-109459078D01*
X141425756Y-109459083D01*
X141597140Y-109779720D01*
X141597151Y-109779738D01*
X141799140Y-110082035D01*
X141799150Y-110082049D01*
X142029807Y-110363106D01*
X142286893Y-110620192D01*
X142286898Y-110620196D01*
X142286899Y-110620197D01*
X142567956Y-110850854D01*
X142870268Y-111052853D01*
X142870277Y-111052858D01*
X142870279Y-111052859D01*
X143190916Y-111224243D01*
X143190918Y-111224243D01*
X143190924Y-111224247D01*
X143526836Y-111363386D01*
X143874767Y-111468930D01*
X143874773Y-111468931D01*
X143874776Y-111468932D01*
X143874787Y-111468935D01*
X144231369Y-111539862D01*
X144593206Y-111575500D01*
X144593209Y-111575500D01*
X144956791Y-111575500D01*
X144956794Y-111575500D01*
X145318631Y-111539862D01*
X145388045Y-111526054D01*
X145675212Y-111468935D01*
X145675223Y-111468932D01*
X145675223Y-111468931D01*
X145675233Y-111468930D01*
X146023164Y-111363386D01*
X146359076Y-111224247D01*
X146679732Y-111052853D01*
X146982044Y-110850854D01*
X147263101Y-110620197D01*
X147520197Y-110363101D01*
X147750854Y-110082044D01*
X147952853Y-109779732D01*
X148124247Y-109459076D01*
X148263386Y-109123164D01*
X148368930Y-108775233D01*
X148368932Y-108775223D01*
X148368935Y-108775212D01*
X148439862Y-108418630D01*
X148475500Y-108056790D01*
X148475500Y-107693210D01*
X148474809Y-107686193D01*
X148439862Y-107331369D01*
X148396824Y-107115000D01*
X148368935Y-106974787D01*
X148368932Y-106974776D01*
X148368931Y-106974773D01*
X148368930Y-106974767D01*
X148263386Y-106626836D01*
X148124247Y-106290924D01*
X148062603Y-106175596D01*
X147952859Y-105970279D01*
X147952858Y-105970277D01*
X147952853Y-105970268D01*
X147750854Y-105667956D01*
X147520197Y-105386899D01*
X147520196Y-105386898D01*
X147520192Y-105386893D01*
X147263106Y-105129807D01*
X146982049Y-104899150D01*
X146982048Y-104899149D01*
X146982044Y-104899146D01*
X146679732Y-104697147D01*
X146679727Y-104697144D01*
X146679720Y-104697140D01*
X146359083Y-104525756D01*
X146359078Y-104525754D01*
X146345208Y-104520009D01*
X146145058Y-104437104D01*
X146023165Y-104386614D01*
X145675223Y-104281067D01*
X145675212Y-104281064D01*
X145318630Y-104210137D01*
X145046111Y-104183296D01*
X144956794Y-104174500D01*
X144593206Y-104174500D01*
X144510679Y-104182628D01*
X144231369Y-104210137D01*
X143874787Y-104281064D01*
X143874776Y-104281067D01*
X143526834Y-104386614D01*
X143190921Y-104525754D01*
X143190916Y-104525756D01*
X142870279Y-104697140D01*
X142870261Y-104697151D01*
X142567964Y-104899140D01*
X142567950Y-104899150D01*
X142286893Y-105129807D01*
X142029807Y-105386893D01*
X141799150Y-105667950D01*
X141799140Y-105667964D01*
X141597151Y-105970261D01*
X141597140Y-105970279D01*
X141425756Y-106290916D01*
X141425754Y-106290921D01*
X141286614Y-106626834D01*
X141181067Y-106974776D01*
X141181064Y-106974787D01*
X141110137Y-107331369D01*
X141093529Y-107500000D01*
X141078717Y-107650396D01*
X141074500Y-107693209D01*
X140342291Y-107693209D01*
X140333974Y-107502701D01*
X140333856Y-107497293D01*
X140333856Y-88802143D01*
X143499500Y-88802143D01*
X143499500Y-90197878D01*
X143499501Y-90197884D01*
X143505908Y-90257491D01*
X143556202Y-90392336D01*
X143556206Y-90392343D01*
X143642452Y-90507552D01*
X143642455Y-90507555D01*
X143757664Y-90593801D01*
X143757671Y-90593805D01*
X143892517Y-90644099D01*
X143892516Y-90644099D01*
X143899444Y-90644843D01*
X143952127Y-90650508D01*
X146643107Y-90650507D01*
X146710146Y-90670192D01*
X146755901Y-90722995D01*
X146765845Y-90792154D01*
X146736820Y-90855710D01*
X146717419Y-90873773D01*
X146692452Y-90892463D01*
X146606206Y-91007672D01*
X146606202Y-91007679D01*
X146555910Y-91142521D01*
X146555909Y-91142525D01*
X146549500Y-91202135D01*
X146549500Y-91202142D01*
X146549500Y-91202143D01*
X146549500Y-91597877D01*
X146549501Y-91597886D01*
X146553679Y-91636752D01*
X146553679Y-91663258D01*
X146549500Y-91702130D01*
X146549500Y-92097875D01*
X146549501Y-92097886D01*
X146553679Y-92136753D01*
X146553679Y-92163257D01*
X146549500Y-92202130D01*
X146549500Y-92597877D01*
X146549501Y-92597886D01*
X146553679Y-92636752D01*
X146553679Y-92663257D01*
X146549500Y-92702129D01*
X146549500Y-93097876D01*
X146549501Y-93097887D01*
X146553679Y-93136754D01*
X146553679Y-93163258D01*
X146549500Y-93202131D01*
X146549500Y-93597878D01*
X146549501Y-93597887D01*
X146553679Y-93636753D01*
X146553679Y-93663258D01*
X146549500Y-93702130D01*
X146549500Y-94097877D01*
X146549501Y-94097886D01*
X146553679Y-94136752D01*
X146553679Y-94163257D01*
X146549500Y-94202129D01*
X146549500Y-94597876D01*
X146549501Y-94597887D01*
X146552289Y-94623830D01*
X146552291Y-94623836D01*
X146555909Y-94657490D01*
X146606204Y-94792338D01*
X146622526Y-94814141D01*
X146622527Y-94814144D01*
X146631176Y-94825698D01*
X146655592Y-94891163D01*
X146640739Y-94959436D01*
X146631177Y-94974315D01*
X146611714Y-95000316D01*
X146563885Y-95036122D01*
X146550000Y-95050008D01*
X146550000Y-95097840D01*
X146553931Y-95134407D01*
X146553931Y-95160913D01*
X146549500Y-95202129D01*
X146549500Y-95597876D01*
X146549501Y-95597887D01*
X146553679Y-95636754D01*
X146553679Y-95663258D01*
X146549500Y-95702131D01*
X146549500Y-96097878D01*
X146549501Y-96097887D01*
X146553679Y-96136753D01*
X146553679Y-96163258D01*
X146549500Y-96202130D01*
X146549500Y-96597877D01*
X146549501Y-96597886D01*
X146553679Y-96636752D01*
X146553679Y-96663257D01*
X146549500Y-96702129D01*
X146549500Y-97097876D01*
X146549501Y-97097885D01*
X146553679Y-97136752D01*
X146553679Y-97163257D01*
X146549500Y-97202130D01*
X146549500Y-97597877D01*
X146549501Y-97597886D01*
X146553679Y-97636752D01*
X146553679Y-97663257D01*
X146549500Y-97702129D01*
X146549500Y-98097876D01*
X146549501Y-98097887D01*
X146553679Y-98136754D01*
X146553679Y-98163258D01*
X146549500Y-98202131D01*
X146549500Y-98597878D01*
X146549501Y-98597887D01*
X146553679Y-98636753D01*
X146553679Y-98663258D01*
X146549500Y-98702130D01*
X146549500Y-99097878D01*
X146549501Y-99097884D01*
X146555908Y-99157491D01*
X146606202Y-99292336D01*
X146606206Y-99292343D01*
X146647498Y-99347501D01*
X146692454Y-99407554D01*
X146717397Y-99426226D01*
X146759267Y-99482159D01*
X146764251Y-99551851D01*
X146730766Y-99613174D01*
X146669442Y-99646658D01*
X146643085Y-99649492D01*
X143952129Y-99649492D01*
X143952123Y-99649493D01*
X143892516Y-99655900D01*
X143757671Y-99706194D01*
X143757664Y-99706198D01*
X143642455Y-99792444D01*
X143642452Y-99792447D01*
X143556206Y-99907656D01*
X143556202Y-99907663D01*
X143505908Y-100042509D01*
X143503237Y-100067359D01*
X143499501Y-100102115D01*
X143499500Y-100102127D01*
X143499500Y-101497862D01*
X143499501Y-101497868D01*
X143505908Y-101557475D01*
X143556202Y-101692320D01*
X143556206Y-101692327D01*
X143642452Y-101807536D01*
X143642455Y-101807539D01*
X143757664Y-101893785D01*
X143757671Y-101893789D01*
X143802618Y-101910553D01*
X143892517Y-101944083D01*
X143952127Y-101950492D01*
X144220501Y-101950491D01*
X144287539Y-101970175D01*
X144333294Y-102022979D01*
X144344500Y-102074491D01*
X144344500Y-102550002D01*
X144349644Y-102621940D01*
X144390182Y-102759994D01*
X144467967Y-102881030D01*
X144467971Y-102881034D01*
X144562442Y-102962894D01*
X144576706Y-102975254D01*
X144615886Y-102993147D01*
X144707580Y-103035023D01*
X144707583Y-103035023D01*
X144707584Y-103035024D01*
X144850000Y-103055500D01*
X144850003Y-103055500D01*
X147050000Y-103055500D01*
X147121940Y-103050355D01*
X147259992Y-103009819D01*
X147381032Y-102932031D01*
X147475254Y-102823294D01*
X147535024Y-102692416D01*
X147555500Y-102550000D01*
X147555500Y-101450000D01*
X147550815Y-101384503D01*
X147550499Y-101375656D01*
X147550499Y-100102121D01*
X147550498Y-100102115D01*
X147550497Y-100102108D01*
X147544091Y-100042509D01*
X147513664Y-99960931D01*
X147493797Y-99907663D01*
X147493793Y-99907656D01*
X147407547Y-99792447D01*
X147382602Y-99773773D01*
X147340732Y-99717839D01*
X147335748Y-99648147D01*
X147369234Y-99586825D01*
X147430558Y-99553340D01*
X147456909Y-99550507D01*
X147897872Y-99550507D01*
X147957483Y-99544099D01*
X148092331Y-99493804D01*
X148207546Y-99407554D01*
X148293796Y-99292339D01*
X148344091Y-99157491D01*
X148350500Y-99097881D01*
X148350499Y-98702136D01*
X148350499Y-98702135D01*
X148350498Y-98702119D01*
X148346320Y-98663262D01*
X148346320Y-98636753D01*
X148350500Y-98597882D01*
X148350499Y-98202137D01*
X148350498Y-98202135D01*
X148350498Y-98202120D01*
X148346320Y-98163261D01*
X148346320Y-98136754D01*
X148350500Y-98097880D01*
X148350499Y-97702135D01*
X148350499Y-97702134D01*
X148350498Y-97702118D01*
X148346320Y-97663261D01*
X148346320Y-97636752D01*
X148350500Y-97597881D01*
X148350499Y-97202136D01*
X148350499Y-97202135D01*
X148350498Y-97202119D01*
X148346320Y-97163261D01*
X148346320Y-97136752D01*
X148350500Y-97097880D01*
X148350499Y-96702135D01*
X148348954Y-96687763D01*
X148361360Y-96619004D01*
X148408971Y-96567867D01*
X148472244Y-96550509D01*
X154254201Y-96550509D01*
X154321240Y-96570194D01*
X154341882Y-96586828D01*
X157010325Y-99255272D01*
X157010326Y-99255273D01*
X157010329Y-99255275D01*
X157010331Y-99255277D01*
X157116873Y-99326465D01*
X157235256Y-99375501D01*
X157235260Y-99375501D01*
X157235261Y-99375502D01*
X157360928Y-99400500D01*
X157360931Y-99400500D01*
X158419769Y-99400500D01*
X158486808Y-99420185D01*
X158532563Y-99472989D01*
X158542507Y-99542147D01*
X158513482Y-99605703D01*
X158481769Y-99631887D01*
X158450875Y-99649723D01*
X158450861Y-99649732D01*
X158367359Y-99713804D01*
X158367359Y-99713805D01*
X159041100Y-100387546D01*
X158902220Y-100480343D01*
X158780343Y-100602220D01*
X158687546Y-100741100D01*
X158013805Y-100067359D01*
X158013804Y-100067359D01*
X157949732Y-100150861D01*
X157949723Y-100150875D01*
X157830931Y-100356628D01*
X157830924Y-100356643D01*
X157740009Y-100576133D01*
X157678511Y-100805643D01*
X157647501Y-101041191D01*
X157647500Y-101041208D01*
X157647500Y-101278791D01*
X157647501Y-101278808D01*
X157678511Y-101514356D01*
X157740009Y-101743866D01*
X157830924Y-101963356D01*
X157830931Y-101963371D01*
X157949721Y-102169122D01*
X157949727Y-102169129D01*
X158013805Y-102252639D01*
X158687545Y-101578899D01*
X158780343Y-101717780D01*
X158902220Y-101839657D01*
X159041099Y-101932452D01*
X158367359Y-102606193D01*
X158367359Y-102606194D01*
X158450868Y-102670272D01*
X158656628Y-102789068D01*
X158656643Y-102789075D01*
X158876133Y-102879990D01*
X159105643Y-102941488D01*
X159341191Y-102972498D01*
X159341209Y-102972500D01*
X159578791Y-102972500D01*
X159578808Y-102972498D01*
X159814356Y-102941488D01*
X160043866Y-102879990D01*
X160263356Y-102789075D01*
X160263370Y-102789068D01*
X160376030Y-102724024D01*
X160443930Y-102707551D01*
X160509957Y-102730403D01*
X160553147Y-102785324D01*
X160559789Y-102854878D01*
X160545418Y-102893410D01*
X160505300Y-102962897D01*
X160505295Y-102962907D01*
X160421876Y-103164300D01*
X160365455Y-103374870D01*
X160337000Y-103590993D01*
X160337000Y-103809006D01*
X160359131Y-103977101D01*
X160365455Y-104025131D01*
X160395690Y-104137973D01*
X160421876Y-104235699D01*
X160505295Y-104437092D01*
X160505300Y-104437102D01*
X160545418Y-104506589D01*
X160561890Y-104574489D01*
X160539037Y-104640516D01*
X160484115Y-104683706D01*
X160414562Y-104690347D01*
X160376030Y-104675975D01*
X160263371Y-104610931D01*
X160263356Y-104610924D01*
X160043866Y-104520009D01*
X159814356Y-104458511D01*
X159578808Y-104427501D01*
X159578791Y-104427500D01*
X159341209Y-104427500D01*
X159341191Y-104427501D01*
X159105643Y-104458511D01*
X158876133Y-104520009D01*
X158656643Y-104610924D01*
X158656628Y-104610931D01*
X158450875Y-104729723D01*
X158450861Y-104729732D01*
X158367359Y-104793804D01*
X158367359Y-104793805D01*
X159041100Y-105467546D01*
X158902220Y-105560343D01*
X158780343Y-105682220D01*
X158687546Y-105821100D01*
X158013805Y-105147359D01*
X158013804Y-105147359D01*
X157949732Y-105230861D01*
X157949723Y-105230875D01*
X157830931Y-105436628D01*
X157830924Y-105436643D01*
X157740009Y-105656133D01*
X157678511Y-105885643D01*
X157647501Y-106121191D01*
X157647500Y-106121208D01*
X157647500Y-106358791D01*
X157647501Y-106358808D01*
X157678511Y-106594356D01*
X157740009Y-106823866D01*
X157830924Y-107043356D01*
X157830931Y-107043371D01*
X157949721Y-107249122D01*
X157949727Y-107249129D01*
X158013805Y-107332639D01*
X158687545Y-106658899D01*
X158780343Y-106797780D01*
X158902220Y-106919657D01*
X159041099Y-107012453D01*
X158367359Y-107686193D01*
X158367359Y-107686194D01*
X158450868Y-107750272D01*
X158656628Y-107869068D01*
X158656643Y-107869075D01*
X158876133Y-107959990D01*
X159105643Y-108021488D01*
X159341191Y-108052498D01*
X159341209Y-108052500D01*
X159578791Y-108052500D01*
X159578808Y-108052498D01*
X159814356Y-108021488D01*
X160043866Y-107959990D01*
X160263356Y-107869075D01*
X160263370Y-107869068D01*
X160469125Y-107750275D01*
X160469132Y-107750270D01*
X160552639Y-107686193D01*
X159878899Y-107012453D01*
X160017780Y-106919657D01*
X160139657Y-106797780D01*
X160232453Y-106658899D01*
X160906193Y-107332639D01*
X160970270Y-107249132D01*
X160970275Y-107249125D01*
X161089068Y-107043370D01*
X161089075Y-107043356D01*
X161179990Y-106823866D01*
X161241488Y-106594356D01*
X161272498Y-106358808D01*
X161272500Y-106358791D01*
X161272500Y-106121208D01*
X161272498Y-106121191D01*
X161241488Y-105885643D01*
X161179990Y-105656133D01*
X161089075Y-105436643D01*
X161089068Y-105436629D01*
X161024024Y-105323969D01*
X161007551Y-105256069D01*
X161030404Y-105190042D01*
X161085325Y-105146851D01*
X161154878Y-105140210D01*
X161193409Y-105154581D01*
X161222728Y-105171508D01*
X161262892Y-105194697D01*
X161262907Y-105194704D01*
X161350232Y-105230875D01*
X161464299Y-105278123D01*
X161674869Y-105334545D01*
X161891001Y-105363000D01*
X161891008Y-105363000D01*
X162108992Y-105363000D01*
X162108999Y-105363000D01*
X162325131Y-105334545D01*
X162535701Y-105278123D01*
X162737104Y-105194699D01*
X162806590Y-105154581D01*
X162874488Y-105138109D01*
X162940515Y-105160961D01*
X162983705Y-105215882D01*
X162990347Y-105285436D01*
X162975976Y-105323968D01*
X162910929Y-105436633D01*
X162910924Y-105436643D01*
X162820009Y-105656133D01*
X162758511Y-105885643D01*
X162727501Y-106121191D01*
X162727500Y-106121208D01*
X162727500Y-106358791D01*
X162727501Y-106358808D01*
X162758511Y-106594356D01*
X162820009Y-106823866D01*
X162910924Y-107043356D01*
X162910931Y-107043371D01*
X163029721Y-107249122D01*
X163029727Y-107249129D01*
X163093805Y-107332639D01*
X163767545Y-106658899D01*
X163860343Y-106797780D01*
X163982220Y-106919657D01*
X164121099Y-107012453D01*
X163447359Y-107686193D01*
X163447359Y-107686194D01*
X163530868Y-107750272D01*
X163736628Y-107869068D01*
X163736643Y-107869075D01*
X163956133Y-107959990D01*
X164185643Y-108021488D01*
X164421191Y-108052498D01*
X164421209Y-108052500D01*
X164658791Y-108052500D01*
X164658808Y-108052498D01*
X164894356Y-108021488D01*
X165123866Y-107959990D01*
X165343356Y-107869075D01*
X165343370Y-107869068D01*
X165549125Y-107750275D01*
X165549132Y-107750270D01*
X165632639Y-107686193D01*
X164958899Y-107012453D01*
X165097780Y-106919657D01*
X165219657Y-106797780D01*
X165312453Y-106658899D01*
X165994101Y-107340547D01*
X166033158Y-107349286D01*
X166082270Y-107398983D01*
X166096718Y-107467342D01*
X166096491Y-107469917D01*
X166074500Y-107693208D01*
X166074500Y-108056790D01*
X166110137Y-108418630D01*
X166181064Y-108775212D01*
X166181067Y-108775223D01*
X166286614Y-109123165D01*
X166425754Y-109459078D01*
X166425756Y-109459083D01*
X166597140Y-109779720D01*
X166597151Y-109779738D01*
X166799140Y-110082035D01*
X166799150Y-110082049D01*
X167029807Y-110363106D01*
X167286893Y-110620192D01*
X167286898Y-110620196D01*
X167286899Y-110620197D01*
X167567956Y-110850854D01*
X167870268Y-111052853D01*
X167870277Y-111052858D01*
X167870279Y-111052859D01*
X168190916Y-111224243D01*
X168190918Y-111224243D01*
X168190924Y-111224247D01*
X168526836Y-111363386D01*
X168874767Y-111468930D01*
X168874773Y-111468931D01*
X168874776Y-111468932D01*
X168874787Y-111468935D01*
X169231369Y-111539862D01*
X169593206Y-111575500D01*
X169593209Y-111575500D01*
X169956791Y-111575500D01*
X169956794Y-111575500D01*
X170318631Y-111539862D01*
X170388045Y-111526054D01*
X170675212Y-111468935D01*
X170675223Y-111468932D01*
X170675223Y-111468931D01*
X170675233Y-111468930D01*
X171023164Y-111363386D01*
X171359076Y-111224247D01*
X171679732Y-111052853D01*
X171982044Y-110850854D01*
X172263101Y-110620197D01*
X172520197Y-110363101D01*
X172750854Y-110082044D01*
X172952853Y-109779732D01*
X173124247Y-109459076D01*
X173263386Y-109123164D01*
X173368930Y-108775233D01*
X173368932Y-108775223D01*
X173368935Y-108775212D01*
X173439862Y-108418630D01*
X173475500Y-108056790D01*
X173475500Y-107693209D01*
X173471283Y-107650396D01*
X173439862Y-107331369D01*
X173396824Y-107115000D01*
X173368935Y-106974787D01*
X173368932Y-106974776D01*
X173368931Y-106974773D01*
X173368930Y-106974767D01*
X173263386Y-106626836D01*
X173124247Y-106290924D01*
X173050963Y-106153820D01*
X172952859Y-105970279D01*
X172952858Y-105970277D01*
X172952853Y-105970268D01*
X172750854Y-105667956D01*
X172520197Y-105386899D01*
X172520196Y-105386898D01*
X172520192Y-105386893D01*
X172263106Y-105129807D01*
X171982049Y-104899150D01*
X171982048Y-104899149D01*
X171982044Y-104899146D01*
X171679732Y-104697147D01*
X171679727Y-104697144D01*
X171679720Y-104697140D01*
X171359083Y-104525756D01*
X171359078Y-104525754D01*
X171345208Y-104520009D01*
X171145058Y-104437104D01*
X171023165Y-104386614D01*
X170675223Y-104281067D01*
X170675212Y-104281064D01*
X170318630Y-104210137D01*
X170046111Y-104183296D01*
X169956794Y-104174500D01*
X169593206Y-104174500D01*
X169510679Y-104182628D01*
X169231369Y-104210137D01*
X168874787Y-104281064D01*
X168874776Y-104281067D01*
X168526834Y-104386614D01*
X168190921Y-104525754D01*
X168190916Y-104525756D01*
X167870279Y-104697140D01*
X167870261Y-104697151D01*
X167567964Y-104899140D01*
X167567950Y-104899150D01*
X167286893Y-105129807D01*
X167029807Y-105386893D01*
X166799150Y-105667950D01*
X166799140Y-105667964D01*
X166597151Y-105970261D01*
X166597145Y-105970271D01*
X166566829Y-106026989D01*
X166517866Y-106076833D01*
X166449729Y-106092293D01*
X166384049Y-106068461D01*
X166341680Y-106012903D01*
X166334532Y-105984720D01*
X166321488Y-105885643D01*
X166259990Y-105656133D01*
X166169075Y-105436643D01*
X166169068Y-105436628D01*
X166050272Y-105230868D01*
X165986194Y-105147359D01*
X165986193Y-105147359D01*
X165312453Y-105821099D01*
X165219657Y-105682220D01*
X165097780Y-105560343D01*
X164958899Y-105467545D01*
X165632639Y-104793805D01*
X165632639Y-104793804D01*
X165549129Y-104729727D01*
X165549122Y-104729721D01*
X165343371Y-104610931D01*
X165343356Y-104610924D01*
X165169861Y-104539061D01*
X165115457Y-104495220D01*
X165093392Y-104428926D01*
X165110671Y-104361227D01*
X165161808Y-104313616D01*
X165217313Y-104300500D01*
X166319238Y-104300500D01*
X166386277Y-104320185D01*
X166406919Y-104336819D01*
X166641338Y-104571238D01*
X166695781Y-104616610D01*
X166846408Y-104695666D01*
X167011577Y-104736376D01*
X167181689Y-104736376D01*
X167346858Y-104695666D01*
X167497485Y-104616610D01*
X167551928Y-104571238D01*
X167914838Y-104208328D01*
X167960210Y-104153885D01*
X168039266Y-104003258D01*
X168079976Y-103838089D01*
X168079976Y-103693650D01*
X168099661Y-103626611D01*
X168152465Y-103580856D01*
X168203976Y-103569650D01*
X168348415Y-103569650D01*
X168513584Y-103528940D01*
X168664211Y-103449884D01*
X168718654Y-103404512D01*
X169081564Y-103041602D01*
X169126936Y-102987159D01*
X169205992Y-102836532D01*
X169246702Y-102671363D01*
X169246702Y-102501251D01*
X169205992Y-102336082D01*
X169126936Y-102185455D01*
X169081564Y-102131012D01*
X168847145Y-101896593D01*
X168813660Y-101835270D01*
X168810826Y-101808912D01*
X168810826Y-101449499D01*
X168830511Y-101382460D01*
X168883315Y-101336705D01*
X168934826Y-101325499D01*
X169008197Y-101325499D01*
X169008198Y-101325499D01*
X169067809Y-101319091D01*
X169202657Y-101268796D01*
X169317872Y-101182546D01*
X169404122Y-101067331D01*
X169454417Y-100932483D01*
X169460826Y-100872873D01*
X169460825Y-99277128D01*
X169454417Y-99217517D01*
X169409795Y-99097880D01*
X169404123Y-99082671D01*
X169404119Y-99082664D01*
X169317873Y-98967455D01*
X169317870Y-98967452D01*
X169202661Y-98881206D01*
X169202654Y-98881202D01*
X169067808Y-98830908D01*
X169067809Y-98830908D01*
X169008209Y-98824501D01*
X169008207Y-98824500D01*
X169008199Y-98824500D01*
X169008190Y-98824500D01*
X167412455Y-98824500D01*
X167412449Y-98824501D01*
X167352842Y-98830908D01*
X167217997Y-98881202D01*
X167217990Y-98881206D01*
X167102781Y-98967452D01*
X167102778Y-98967455D01*
X167016532Y-99082664D01*
X167016528Y-99082671D01*
X166966234Y-99217517D01*
X166962175Y-99255277D01*
X166959827Y-99277123D01*
X166959826Y-99277135D01*
X166959826Y-100872870D01*
X166959827Y-100872876D01*
X166966234Y-100932483D01*
X167016528Y-101067328D01*
X167016532Y-101067335D01*
X167102778Y-101182544D01*
X167102781Y-101182547D01*
X167217990Y-101268793D01*
X167217997Y-101268797D01*
X167262944Y-101285561D01*
X167352843Y-101319091D01*
X167412453Y-101325500D01*
X167485826Y-101325499D01*
X167552864Y-101345183D01*
X167598620Y-101397986D01*
X167609826Y-101449499D01*
X167609826Y-101702846D01*
X167590141Y-101769885D01*
X167573507Y-101790527D01*
X167339098Y-102024935D01*
X167339084Y-102024950D01*
X167293717Y-102079387D01*
X167214659Y-102230016D01*
X167173950Y-102395185D01*
X167173950Y-102539624D01*
X167154265Y-102606663D01*
X167101461Y-102652418D01*
X167049950Y-102663624D01*
X166905511Y-102663624D01*
X166740342Y-102704333D01*
X166589713Y-102783391D01*
X166535276Y-102828758D01*
X166535261Y-102828772D01*
X166300853Y-103063181D01*
X166239530Y-103096666D01*
X166213172Y-103099500D01*
X165217313Y-103099500D01*
X165150274Y-103079815D01*
X165104519Y-103027011D01*
X165094575Y-102957853D01*
X165123600Y-102894297D01*
X165169861Y-102860939D01*
X165343356Y-102789075D01*
X165343370Y-102789068D01*
X165549125Y-102670275D01*
X165549132Y-102670270D01*
X165632639Y-102606193D01*
X164958899Y-101932453D01*
X165097780Y-101839657D01*
X165219657Y-101717780D01*
X165312453Y-101578899D01*
X165986193Y-102252639D01*
X166050270Y-102169132D01*
X166050275Y-102169125D01*
X166169068Y-101963370D01*
X166169075Y-101963356D01*
X166259990Y-101743866D01*
X166321488Y-101514356D01*
X166352498Y-101278808D01*
X166352500Y-101278791D01*
X166352500Y-101041208D01*
X166352498Y-101041191D01*
X166321488Y-100805643D01*
X166259990Y-100576133D01*
X166169075Y-100356643D01*
X166169068Y-100356628D01*
X166050272Y-100150868D01*
X165986194Y-100067359D01*
X165986193Y-100067359D01*
X165312453Y-100741099D01*
X165219657Y-100602220D01*
X165097780Y-100480343D01*
X164958899Y-100387546D01*
X165632639Y-99713805D01*
X165632639Y-99713804D01*
X165549129Y-99649727D01*
X165549122Y-99649721D01*
X165343371Y-99530931D01*
X165343356Y-99530924D01*
X165123866Y-99440009D01*
X164894356Y-99378511D01*
X164658808Y-99347501D01*
X164658791Y-99347500D01*
X164421209Y-99347500D01*
X164421191Y-99347501D01*
X164185643Y-99378511D01*
X163956133Y-99440009D01*
X163736643Y-99530924D01*
X163736628Y-99530931D01*
X163530875Y-99649723D01*
X163530861Y-99649732D01*
X163447359Y-99713804D01*
X163447359Y-99713805D01*
X164121100Y-100387546D01*
X163982220Y-100480343D01*
X163860343Y-100602220D01*
X163767546Y-100741100D01*
X163093805Y-100067359D01*
X163093804Y-100067359D01*
X163029732Y-100150861D01*
X163029723Y-100150875D01*
X162910931Y-100356628D01*
X162910927Y-100356638D01*
X162889061Y-100409428D01*
X162845220Y-100463831D01*
X162778926Y-100485896D01*
X162711227Y-100468617D01*
X162663616Y-100417480D01*
X162650500Y-100361975D01*
X162650500Y-99960928D01*
X162625502Y-99835261D01*
X162625501Y-99835260D01*
X162625501Y-99835256D01*
X162576465Y-99716873D01*
X162535725Y-99655901D01*
X162505276Y-99610330D01*
X162505274Y-99610327D01*
X161139673Y-98244726D01*
X161139669Y-98244723D01*
X161033127Y-98173535D01*
X161008323Y-98163261D01*
X160914744Y-98124499D01*
X160914738Y-98124497D01*
X160789071Y-98099500D01*
X160789069Y-98099500D01*
X160639476Y-98099500D01*
X160572437Y-98079815D01*
X160526682Y-98027011D01*
X160516738Y-97957853D01*
X160520537Y-97940435D01*
X160540278Y-97873471D01*
X159878899Y-97212092D01*
X160017780Y-97119296D01*
X160139657Y-96997419D01*
X160232453Y-96858538D01*
X160906193Y-97532278D01*
X160970270Y-97448771D01*
X160970275Y-97448764D01*
X161089068Y-97243009D01*
X161089075Y-97242995D01*
X161179990Y-97023505D01*
X161241488Y-96793995D01*
X161272498Y-96558447D01*
X161272500Y-96558430D01*
X161272500Y-96320847D01*
X161272498Y-96320830D01*
X161241488Y-96085282D01*
X161179990Y-95855772D01*
X161089075Y-95636282D01*
X161089068Y-95636268D01*
X161024024Y-95523608D01*
X161007551Y-95455708D01*
X161030404Y-95389681D01*
X161085325Y-95346490D01*
X161154878Y-95339849D01*
X161193409Y-95354220D01*
X161222728Y-95371147D01*
X161262892Y-95394336D01*
X161262907Y-95394343D01*
X161350232Y-95430514D01*
X161464299Y-95477762D01*
X161674869Y-95534184D01*
X161891001Y-95562639D01*
X161891008Y-95562639D01*
X162108992Y-95562639D01*
X162108999Y-95562639D01*
X162325131Y-95534184D01*
X162535701Y-95477762D01*
X162737104Y-95394338D01*
X162806590Y-95354220D01*
X162874488Y-95337748D01*
X162940515Y-95360600D01*
X162983705Y-95415521D01*
X162990347Y-95485075D01*
X162975976Y-95523607D01*
X162910929Y-95636272D01*
X162910924Y-95636282D01*
X162820009Y-95855772D01*
X162758511Y-96085282D01*
X162727501Y-96320830D01*
X162727500Y-96320847D01*
X162727500Y-96558430D01*
X162727501Y-96558447D01*
X162758511Y-96793995D01*
X162820009Y-97023505D01*
X162910924Y-97242995D01*
X162910931Y-97243010D01*
X163029721Y-97448761D01*
X163029727Y-97448768D01*
X163093805Y-97532278D01*
X163767545Y-96858538D01*
X163860343Y-96997419D01*
X163982220Y-97119296D01*
X164121099Y-97212092D01*
X163447359Y-97885832D01*
X163447359Y-97885833D01*
X163530868Y-97949911D01*
X163736628Y-98068707D01*
X163736643Y-98068714D01*
X163956133Y-98159629D01*
X164185643Y-98221127D01*
X164421191Y-98252137D01*
X164421209Y-98252139D01*
X164658791Y-98252139D01*
X164658808Y-98252137D01*
X164894356Y-98221127D01*
X165123866Y-98159629D01*
X165343356Y-98068714D01*
X165343370Y-98068707D01*
X165549125Y-97949914D01*
X165549132Y-97949909D01*
X165632639Y-97885832D01*
X164958899Y-97212092D01*
X165097780Y-97119296D01*
X165219657Y-96997419D01*
X165312453Y-96858538D01*
X165986193Y-97532278D01*
X166024144Y-97482821D01*
X166024145Y-97482819D01*
X166050265Y-97448779D01*
X166050275Y-97448764D01*
X166169068Y-97243009D01*
X166169075Y-97242995D01*
X166259990Y-97023505D01*
X166321488Y-96793995D01*
X166352498Y-96558447D01*
X166352500Y-96558430D01*
X166352500Y-96320847D01*
X166352498Y-96320831D01*
X166346619Y-96276169D01*
X166345130Y-96264856D01*
X169809664Y-96264856D01*
X169809664Y-96500961D01*
X169846598Y-96734156D01*
X169919561Y-96958711D01*
X170026751Y-97169083D01*
X170087002Y-97252013D01*
X170087004Y-97252014D01*
X170826701Y-96512317D01*
X170843739Y-96575902D01*
X170909565Y-96689916D01*
X171002657Y-96783008D01*
X171116671Y-96848834D01*
X171180254Y-96865871D01*
X170440557Y-97605567D01*
X170523492Y-97665823D01*
X170733861Y-97773011D01*
X170958416Y-97845974D01*
X170958415Y-97845974D01*
X171191612Y-97882909D01*
X171427716Y-97882909D01*
X171660911Y-97845974D01*
X171885466Y-97773011D01*
X172095827Y-97665827D01*
X172095833Y-97665823D01*
X172178768Y-97605567D01*
X172178769Y-97605567D01*
X171439072Y-96865871D01*
X171502657Y-96848834D01*
X171616671Y-96783008D01*
X171709763Y-96689916D01*
X171775589Y-96575902D01*
X171792626Y-96512318D01*
X172532322Y-97252014D01*
X172532322Y-97252013D01*
X172592578Y-97169078D01*
X172592582Y-97169072D01*
X172699766Y-96958711D01*
X172772729Y-96734156D01*
X172809664Y-96500961D01*
X172809664Y-96264856D01*
X172772729Y-96031661D01*
X172699766Y-95807106D01*
X172592578Y-95596737D01*
X172532322Y-95513803D01*
X172532322Y-95513802D01*
X171792626Y-96253499D01*
X171775589Y-96189916D01*
X171709763Y-96075902D01*
X171616671Y-95982810D01*
X171502657Y-95916984D01*
X171439073Y-95899946D01*
X172178769Y-95160249D01*
X172178768Y-95160247D01*
X172095838Y-95099996D01*
X171885466Y-94992806D01*
X171660911Y-94919843D01*
X171660912Y-94919843D01*
X171427716Y-94882909D01*
X171191612Y-94882909D01*
X170958416Y-94919843D01*
X170733861Y-94992806D01*
X170523494Y-95099993D01*
X170440558Y-95160249D01*
X171180255Y-95899946D01*
X171116671Y-95916984D01*
X171002657Y-95982810D01*
X170909565Y-96075902D01*
X170843739Y-96189916D01*
X170826701Y-96253500D01*
X170087004Y-95513803D01*
X170026748Y-95596739D01*
X169919561Y-95807106D01*
X169846598Y-96031661D01*
X169809664Y-96264856D01*
X166345130Y-96264856D01*
X166321488Y-96085282D01*
X166259990Y-95855772D01*
X166169075Y-95636282D01*
X166169068Y-95636267D01*
X166050272Y-95430507D01*
X165986194Y-95346998D01*
X165986193Y-95346998D01*
X165312453Y-96020738D01*
X165219657Y-95881859D01*
X165097780Y-95759982D01*
X164958899Y-95667185D01*
X165506257Y-95119827D01*
X165632639Y-94993444D01*
X165632639Y-94993443D01*
X165549129Y-94929366D01*
X165549122Y-94929360D01*
X165343371Y-94810570D01*
X165343356Y-94810563D01*
X165169861Y-94738700D01*
X165115457Y-94694859D01*
X165093392Y-94628565D01*
X165110671Y-94560866D01*
X165161808Y-94513255D01*
X165217313Y-94500139D01*
X166319238Y-94500139D01*
X166386277Y-94519824D01*
X166406919Y-94536458D01*
X166641338Y-94770877D01*
X166695781Y-94816249D01*
X166846408Y-94895305D01*
X167011577Y-94936015D01*
X167181689Y-94936015D01*
X167346858Y-94895305D01*
X167497485Y-94816249D01*
X167551928Y-94770877D01*
X167914838Y-94407967D01*
X167960210Y-94353524D01*
X168039266Y-94202897D01*
X168079976Y-94037728D01*
X168079976Y-93893289D01*
X168099661Y-93826250D01*
X168152465Y-93780495D01*
X168203976Y-93769289D01*
X168348415Y-93769289D01*
X168513584Y-93728579D01*
X168664211Y-93649523D01*
X168718654Y-93604151D01*
X169081564Y-93241241D01*
X169126936Y-93186798D01*
X169205992Y-93036171D01*
X169246702Y-92871002D01*
X169246702Y-92700890D01*
X169205992Y-92535721D01*
X169126936Y-92385094D01*
X169081564Y-92330651D01*
X168612588Y-91861675D01*
X168558145Y-91816303D01*
X168477748Y-91774107D01*
X168407517Y-91737246D01*
X168354723Y-91724234D01*
X168294342Y-91689077D01*
X168262554Y-91626858D01*
X168269450Y-91557329D01*
X168312841Y-91502567D01*
X168378952Y-91479957D01*
X168384380Y-91479837D01*
X169008198Y-91479837D01*
X169067809Y-91473429D01*
X169202657Y-91423134D01*
X169317872Y-91336884D01*
X169404122Y-91221669D01*
X169454417Y-91086821D01*
X169460826Y-91027211D01*
X169460825Y-89431466D01*
X169454417Y-89371855D01*
X169404122Y-89237007D01*
X169404121Y-89237006D01*
X169404119Y-89237002D01*
X169317873Y-89121793D01*
X169317870Y-89121790D01*
X169202661Y-89035544D01*
X169202654Y-89035540D01*
X169067808Y-88985246D01*
X169067809Y-88985246D01*
X169008209Y-88978839D01*
X169008207Y-88978838D01*
X169008199Y-88978838D01*
X169008190Y-88978838D01*
X167412455Y-88978838D01*
X167412449Y-88978839D01*
X167352842Y-88985246D01*
X167217997Y-89035540D01*
X167217990Y-89035544D01*
X167102781Y-89121790D01*
X167102778Y-89121793D01*
X167016532Y-89237002D01*
X167016528Y-89237009D01*
X166966234Y-89371855D01*
X166959827Y-89431454D01*
X166959827Y-89431461D01*
X166959826Y-89431473D01*
X166959826Y-91027208D01*
X166959827Y-91027214D01*
X166966234Y-91086821D01*
X167016528Y-91221666D01*
X167016532Y-91221673D01*
X167102778Y-91336882D01*
X167102781Y-91336885D01*
X167217990Y-91423131D01*
X167217997Y-91423135D01*
X167352843Y-91473429D01*
X167352842Y-91473429D01*
X167359770Y-91474173D01*
X167412453Y-91479838D01*
X167930188Y-91479837D01*
X167997225Y-91499521D01*
X168042980Y-91552325D01*
X168052924Y-91621484D01*
X168023899Y-91685040D01*
X167965121Y-91722814D01*
X167959862Y-91724234D01*
X167907067Y-91737247D01*
X167756439Y-91816304D01*
X167702002Y-91861671D01*
X167701987Y-91861685D01*
X167339098Y-92224574D01*
X167339084Y-92224589D01*
X167293717Y-92279026D01*
X167214659Y-92429655D01*
X167173950Y-92594824D01*
X167173950Y-92739263D01*
X167154265Y-92806302D01*
X167101461Y-92852057D01*
X167049950Y-92863263D01*
X166905511Y-92863263D01*
X166740342Y-92903972D01*
X166589713Y-92983030D01*
X166535276Y-93028397D01*
X166535261Y-93028411D01*
X166300853Y-93262820D01*
X166239530Y-93296305D01*
X166213172Y-93299139D01*
X165217313Y-93299139D01*
X165150274Y-93279454D01*
X165104519Y-93226650D01*
X165094575Y-93157492D01*
X165123600Y-93093936D01*
X165169861Y-93060578D01*
X165343356Y-92988714D01*
X165343370Y-92988707D01*
X165549125Y-92869914D01*
X165549132Y-92869909D01*
X165632639Y-92805832D01*
X164958899Y-92132092D01*
X165097780Y-92039296D01*
X165219657Y-91917419D01*
X165312453Y-91778538D01*
X165986193Y-92452278D01*
X166050270Y-92368771D01*
X166050275Y-92368764D01*
X166169068Y-92163009D01*
X166169075Y-92162995D01*
X166259990Y-91943505D01*
X166321488Y-91713995D01*
X166352498Y-91478447D01*
X166352500Y-91478430D01*
X166352500Y-91240847D01*
X166352498Y-91240830D01*
X166321488Y-91005282D01*
X166259990Y-90775772D01*
X166169075Y-90556282D01*
X166169068Y-90556267D01*
X166050272Y-90350507D01*
X165986194Y-90266998D01*
X165986193Y-90266998D01*
X165312453Y-90940738D01*
X165219657Y-90801859D01*
X165097780Y-90679982D01*
X164958899Y-90587185D01*
X165632639Y-89913444D01*
X165632639Y-89913443D01*
X165549129Y-89849366D01*
X165549122Y-89849360D01*
X165343371Y-89730570D01*
X165343356Y-89730563D01*
X165123866Y-89639648D01*
X164894356Y-89578150D01*
X164658808Y-89547140D01*
X164658791Y-89547139D01*
X164421209Y-89547139D01*
X164421191Y-89547140D01*
X164185643Y-89578150D01*
X163956133Y-89639648D01*
X163736643Y-89730563D01*
X163736628Y-89730570D01*
X163530875Y-89849362D01*
X163530861Y-89849371D01*
X163447359Y-89913443D01*
X163447359Y-89913444D01*
X164121100Y-90587185D01*
X163982220Y-90679982D01*
X163860343Y-90801859D01*
X163767546Y-90940739D01*
X163093805Y-90266998D01*
X163093804Y-90266998D01*
X163029732Y-90350500D01*
X163029723Y-90350514D01*
X162910931Y-90556267D01*
X162910924Y-90556282D01*
X162820009Y-90775772D01*
X162758511Y-91005282D01*
X162727501Y-91240830D01*
X162727500Y-91240847D01*
X162727500Y-91478430D01*
X162727501Y-91478447D01*
X162758511Y-91713995D01*
X162820009Y-91943505D01*
X162910924Y-92162995D01*
X162910931Y-92163010D01*
X162975975Y-92275669D01*
X162992448Y-92343569D01*
X162969595Y-92409596D01*
X162914674Y-92452787D01*
X162845121Y-92459428D01*
X162806589Y-92445057D01*
X162779908Y-92429653D01*
X162737104Y-92404940D01*
X162737102Y-92404939D01*
X162737092Y-92404934D01*
X162535699Y-92321515D01*
X162437973Y-92295329D01*
X162325131Y-92265094D01*
X162275099Y-92258507D01*
X162109006Y-92236639D01*
X162108999Y-92236639D01*
X161891001Y-92236639D01*
X161890993Y-92236639D01*
X161698883Y-92261932D01*
X161674869Y-92265094D01*
X161635403Y-92275669D01*
X161464300Y-92321515D01*
X161262907Y-92404934D01*
X161262897Y-92404939D01*
X161193410Y-92445057D01*
X161125509Y-92461528D01*
X161059483Y-92438676D01*
X161016293Y-92383754D01*
X161009652Y-92314200D01*
X161024024Y-92275669D01*
X161089068Y-92163009D01*
X161089075Y-92162995D01*
X161179990Y-91943505D01*
X161241488Y-91713995D01*
X161272498Y-91478447D01*
X161272500Y-91478430D01*
X161272500Y-91240847D01*
X161272498Y-91240830D01*
X161241488Y-91005282D01*
X161179990Y-90775772D01*
X161089075Y-90556282D01*
X161089068Y-90556267D01*
X160970272Y-90350507D01*
X160906194Y-90266998D01*
X160906193Y-90266998D01*
X160232453Y-90940738D01*
X160139657Y-90801859D01*
X160017780Y-90679982D01*
X159878899Y-90587185D01*
X160552639Y-89913444D01*
X160552639Y-89913443D01*
X160469129Y-89849366D01*
X160469122Y-89849360D01*
X160263371Y-89730570D01*
X160263356Y-89730563D01*
X160043866Y-89639648D01*
X159814356Y-89578150D01*
X159578808Y-89547140D01*
X159578791Y-89547139D01*
X159341209Y-89547139D01*
X159341191Y-89547140D01*
X159105643Y-89578150D01*
X158876133Y-89639648D01*
X158656643Y-89730563D01*
X158656628Y-89730570D01*
X158450875Y-89849362D01*
X158450861Y-89849371D01*
X158367359Y-89913443D01*
X158367359Y-89913444D01*
X159041100Y-90587185D01*
X158902220Y-90679982D01*
X158780343Y-90801859D01*
X158687546Y-90940739D01*
X158013805Y-90266998D01*
X158013804Y-90266998D01*
X157949732Y-90350500D01*
X157949723Y-90350514D01*
X157830931Y-90556267D01*
X157830924Y-90556282D01*
X157740009Y-90775772D01*
X157678511Y-91005282D01*
X157647501Y-91240830D01*
X157647500Y-91240847D01*
X157647500Y-91478430D01*
X157647501Y-91478447D01*
X157678511Y-91713995D01*
X157740009Y-91943505D01*
X157830924Y-92162995D01*
X157830931Y-92163010D01*
X157949721Y-92368761D01*
X157949727Y-92368768D01*
X158013805Y-92452278D01*
X158687545Y-91778538D01*
X158780343Y-91917419D01*
X158902220Y-92039296D01*
X159041099Y-92132092D01*
X158367359Y-92805832D01*
X158367359Y-92805833D01*
X158450868Y-92869911D01*
X158656628Y-92988707D01*
X158656643Y-92988714D01*
X158710299Y-93010939D01*
X158764703Y-93054780D01*
X158786768Y-93121074D01*
X158769489Y-93188773D01*
X158718352Y-93236384D01*
X158662847Y-93249500D01*
X148472245Y-93249500D01*
X148405206Y-93229815D01*
X148359451Y-93177011D01*
X148348955Y-93112247D01*
X148350500Y-93097880D01*
X148350499Y-92702135D01*
X148350499Y-92702134D01*
X148350498Y-92702118D01*
X148346320Y-92663261D01*
X148346320Y-92636752D01*
X148349062Y-92611245D01*
X148375801Y-92546698D01*
X148433194Y-92506851D01*
X148472351Y-92500506D01*
X150667577Y-92500506D01*
X150667593Y-92500507D01*
X150675189Y-92500507D01*
X150833300Y-92500507D01*
X150833303Y-92500507D01*
X150986031Y-92459583D01*
X151037867Y-92429655D01*
X151122962Y-92380526D01*
X151234766Y-92268722D01*
X151234766Y-92268720D01*
X151244970Y-92258517D01*
X151244974Y-92258512D01*
X154589936Y-88913549D01*
X154651257Y-88880066D01*
X154715932Y-88883300D01*
X154842131Y-88924306D01*
X154929609Y-88938161D01*
X155075402Y-88961253D01*
X155075407Y-88961253D01*
X155311596Y-88961253D01*
X155544867Y-88924306D01*
X155577967Y-88913551D01*
X155769491Y-88851321D01*
X155979932Y-88744096D01*
X156171009Y-88605270D01*
X156338016Y-88438263D01*
X156476842Y-88247186D01*
X156584067Y-88036745D01*
X156657052Y-87812121D01*
X156678285Y-87678060D01*
X156693999Y-87578850D01*
X156693999Y-87342655D01*
X156657052Y-87109384D01*
X156584065Y-86884756D01*
X156476841Y-86674319D01*
X156338016Y-86483243D01*
X156171009Y-86316236D01*
X155979932Y-86177410D01*
X155769495Y-86070186D01*
X155544867Y-85997199D01*
X155311596Y-85960253D01*
X155311591Y-85960253D01*
X155075407Y-85960253D01*
X155075402Y-85960253D01*
X154842130Y-85997199D01*
X154617502Y-86070186D01*
X154407065Y-86177410D01*
X154298049Y-86256615D01*
X154215989Y-86316236D01*
X154215987Y-86316238D01*
X154215986Y-86316238D01*
X154048984Y-86483240D01*
X154048984Y-86483241D01*
X154048982Y-86483243D01*
X154007846Y-86539862D01*
X153910156Y-86674319D01*
X153802932Y-86884756D01*
X153729945Y-87109384D01*
X153692999Y-87342655D01*
X153692999Y-87578850D01*
X153729946Y-87812122D01*
X153729946Y-87812125D01*
X153770949Y-87938317D01*
X153772944Y-88008158D01*
X153740699Y-88064316D01*
X150541830Y-91263187D01*
X150480507Y-91296672D01*
X150454149Y-91299506D01*
X148699100Y-91299506D01*
X148632061Y-91279821D01*
X148586306Y-91227017D01*
X148576362Y-91157859D01*
X148605387Y-91094303D01*
X148611419Y-91087825D01*
X148693962Y-91005282D01*
X148847302Y-90851942D01*
X148926359Y-90715010D01*
X148967283Y-90562283D01*
X148967283Y-90404168D01*
X148967283Y-90396573D01*
X148967282Y-90396555D01*
X148967282Y-85983139D01*
X148986967Y-85916100D01*
X149003596Y-85895463D01*
X150503455Y-84395603D01*
X150564776Y-84362120D01*
X150629451Y-84365354D01*
X150755650Y-84406360D01*
X150843128Y-84420215D01*
X150988921Y-84443307D01*
X150988926Y-84443307D01*
X151225115Y-84443307D01*
X151458386Y-84406360D01*
X151491486Y-84395605D01*
X151683010Y-84333375D01*
X151893451Y-84226150D01*
X152084528Y-84087324D01*
X152251535Y-83920317D01*
X152390361Y-83729240D01*
X152497586Y-83518799D01*
X152570571Y-83294175D01*
X152595448Y-83137107D01*
X152607518Y-83060904D01*
X152607518Y-82824709D01*
X152570571Y-82591438D01*
X152497584Y-82366810D01*
X152390360Y-82156373D01*
X152289056Y-82016940D01*
X158707546Y-82016940D01*
X158707546Y-82252911D01*
X158738345Y-82486840D01*
X158799416Y-82714763D01*
X158889706Y-82932745D01*
X158889711Y-82932754D01*
X159007690Y-83137097D01*
X159007691Y-83137098D01*
X159070267Y-83218649D01*
X159906504Y-82382413D01*
X159931524Y-82442816D01*
X160002658Y-82549277D01*
X160093195Y-82639814D01*
X160199656Y-82710948D01*
X160260057Y-82735967D01*
X159423821Y-83572203D01*
X159505373Y-83634780D01*
X159505374Y-83634781D01*
X159709717Y-83752760D01*
X159709726Y-83752765D01*
X159927709Y-83843055D01*
X159927707Y-83843055D01*
X160155631Y-83904126D01*
X160389560Y-83934925D01*
X160389575Y-83934926D01*
X160625517Y-83934926D01*
X160625531Y-83934925D01*
X160859460Y-83904126D01*
X161087383Y-83843055D01*
X161305365Y-83752765D01*
X161305374Y-83752760D01*
X161509727Y-83634776D01*
X161591269Y-83572205D01*
X161591269Y-83572202D01*
X160755033Y-82735967D01*
X160815436Y-82710948D01*
X160921897Y-82639814D01*
X161012434Y-82549277D01*
X161083568Y-82442816D01*
X161108587Y-82382413D01*
X161777546Y-83051372D01*
X162446504Y-82382413D01*
X162471524Y-82442816D01*
X162542658Y-82549277D01*
X162633195Y-82639814D01*
X162739656Y-82710948D01*
X162800057Y-82735967D01*
X161963821Y-83572203D01*
X162045373Y-83634780D01*
X162045374Y-83634781D01*
X162249717Y-83752760D01*
X162249726Y-83752765D01*
X162467709Y-83843055D01*
X162467707Y-83843055D01*
X162695631Y-83904126D01*
X162929560Y-83934925D01*
X162929575Y-83934926D01*
X163165517Y-83934926D01*
X163165531Y-83934925D01*
X163399460Y-83904126D01*
X163627383Y-83843055D01*
X163845365Y-83752765D01*
X163845374Y-83752760D01*
X164049727Y-83634776D01*
X164131269Y-83572205D01*
X164131269Y-83572202D01*
X163295033Y-82735967D01*
X163355436Y-82710948D01*
X163461897Y-82639814D01*
X163552434Y-82549277D01*
X163623568Y-82442816D01*
X163648587Y-82382414D01*
X164484822Y-83218649D01*
X164484825Y-83218649D01*
X164547396Y-83137107D01*
X164665380Y-82932754D01*
X164665385Y-82932745D01*
X164755674Y-82714765D01*
X164761451Y-82693206D01*
X166074500Y-82693206D01*
X166074500Y-83056794D01*
X166074905Y-83060904D01*
X166110137Y-83418630D01*
X166181064Y-83775212D01*
X166181067Y-83775223D01*
X166286614Y-84123165D01*
X166425754Y-84459078D01*
X166425756Y-84459083D01*
X166597140Y-84779720D01*
X166597151Y-84779738D01*
X166799140Y-85082035D01*
X166799150Y-85082049D01*
X167029807Y-85363106D01*
X167286893Y-85620192D01*
X167286898Y-85620196D01*
X167286899Y-85620197D01*
X167567956Y-85850854D01*
X167870268Y-86052853D01*
X167870277Y-86052858D01*
X167870279Y-86052859D01*
X168190916Y-86224243D01*
X168190918Y-86224243D01*
X168190924Y-86224247D01*
X168526836Y-86363386D01*
X168874767Y-86468930D01*
X168874773Y-86468931D01*
X168874776Y-86468932D01*
X168874787Y-86468935D01*
X169231369Y-86539862D01*
X169593206Y-86575500D01*
X169593209Y-86575500D01*
X169956791Y-86575500D01*
X169956794Y-86575500D01*
X170318631Y-86539862D01*
X170388045Y-86526054D01*
X170675212Y-86468935D01*
X170675223Y-86468932D01*
X170675223Y-86468931D01*
X170675233Y-86468930D01*
X171023164Y-86363386D01*
X171359076Y-86224247D01*
X171679732Y-86052853D01*
X171982044Y-85850854D01*
X172263101Y-85620197D01*
X172520197Y-85363101D01*
X172750854Y-85082044D01*
X172952853Y-84779732D01*
X173124247Y-84459076D01*
X173263386Y-84123164D01*
X173368930Y-83775233D01*
X173368932Y-83775223D01*
X173368935Y-83775212D01*
X173439862Y-83418630D01*
X173475500Y-83056794D01*
X173475500Y-82693206D01*
X173439862Y-82331369D01*
X173424253Y-82252897D01*
X173368935Y-81974787D01*
X173368932Y-81974776D01*
X173368931Y-81974773D01*
X173368930Y-81974767D01*
X173263386Y-81626836D01*
X173124247Y-81290924D01*
X173039703Y-81132754D01*
X172952859Y-80970279D01*
X172952858Y-80970277D01*
X172952853Y-80970268D01*
X172750854Y-80667956D01*
X172520197Y-80386899D01*
X172520196Y-80386898D01*
X172520192Y-80386893D01*
X172263106Y-80129807D01*
X171982049Y-79899150D01*
X171982048Y-79899149D01*
X171982044Y-79899146D01*
X171679732Y-79697147D01*
X171679727Y-79697144D01*
X171679720Y-79697140D01*
X171359083Y-79525756D01*
X171359078Y-79525754D01*
X171023165Y-79386614D01*
X170675223Y-79281067D01*
X170675212Y-79281064D01*
X170318630Y-79210137D01*
X170046111Y-79183296D01*
X169956794Y-79174500D01*
X169593206Y-79174500D01*
X169510679Y-79182628D01*
X169231369Y-79210137D01*
X168874787Y-79281064D01*
X168874776Y-79281067D01*
X168526834Y-79386614D01*
X168190921Y-79525754D01*
X168190916Y-79525756D01*
X167870279Y-79697140D01*
X167870261Y-79697151D01*
X167567964Y-79899140D01*
X167567950Y-79899150D01*
X167286893Y-80129807D01*
X167029807Y-80386893D01*
X166799150Y-80667950D01*
X166799140Y-80667964D01*
X166597151Y-80970261D01*
X166597140Y-80970279D01*
X166425756Y-81290916D01*
X166425754Y-81290921D01*
X166286614Y-81626834D01*
X166181067Y-81974776D01*
X166181064Y-81974787D01*
X166110137Y-82331369D01*
X166088676Y-82549277D01*
X166074500Y-82693206D01*
X164761451Y-82693206D01*
X164770867Y-82658068D01*
X164770867Y-82658067D01*
X164816746Y-82486841D01*
X164847545Y-82252911D01*
X164847546Y-82252897D01*
X164847546Y-82016954D01*
X164847545Y-82016940D01*
X164816746Y-81783011D01*
X164755675Y-81555088D01*
X164665385Y-81337106D01*
X164665380Y-81337097D01*
X164547401Y-81132754D01*
X164547400Y-81132753D01*
X164484823Y-81051201D01*
X163648587Y-81887437D01*
X163623568Y-81827036D01*
X163552434Y-81720575D01*
X163461897Y-81630038D01*
X163355436Y-81558904D01*
X163295034Y-81533884D01*
X164131269Y-80697647D01*
X164049718Y-80635071D01*
X164049717Y-80635070D01*
X163845374Y-80517091D01*
X163845365Y-80517086D01*
X163627382Y-80426796D01*
X163627384Y-80426796D01*
X163399460Y-80365725D01*
X163165531Y-80334926D01*
X162929560Y-80334926D01*
X162695631Y-80365725D01*
X162467708Y-80426796D01*
X162249726Y-80517086D01*
X162249717Y-80517091D01*
X162045374Y-80635070D01*
X162045364Y-80635076D01*
X161963821Y-80697646D01*
X161963821Y-80697647D01*
X162800058Y-81533884D01*
X162739656Y-81558904D01*
X162633195Y-81630038D01*
X162542658Y-81720575D01*
X162471524Y-81827036D01*
X162446504Y-81887438D01*
X161777546Y-81218480D01*
X161108587Y-81887438D01*
X161083568Y-81827036D01*
X161012434Y-81720575D01*
X160921897Y-81630038D01*
X160815436Y-81558904D01*
X160755034Y-81533884D01*
X161591269Y-80697647D01*
X161509718Y-80635071D01*
X161509717Y-80635070D01*
X161305374Y-80517091D01*
X161305365Y-80517086D01*
X161087382Y-80426796D01*
X161087384Y-80426796D01*
X160859460Y-80365725D01*
X160625531Y-80334926D01*
X160389560Y-80334926D01*
X160155631Y-80365725D01*
X159927708Y-80426796D01*
X159709726Y-80517086D01*
X159709717Y-80517091D01*
X159505374Y-80635070D01*
X159505364Y-80635076D01*
X159423821Y-80697646D01*
X159423821Y-80697647D01*
X160260058Y-81533884D01*
X160199656Y-81558904D01*
X160093195Y-81630038D01*
X160002658Y-81720575D01*
X159931524Y-81827036D01*
X159906504Y-81887437D01*
X159070267Y-81051201D01*
X159070266Y-81051201D01*
X159007696Y-81132744D01*
X159007690Y-81132754D01*
X158889711Y-81337097D01*
X158889706Y-81337106D01*
X158799416Y-81555088D01*
X158738345Y-81783011D01*
X158707546Y-82016940D01*
X152289056Y-82016940D01*
X152251535Y-81965297D01*
X152084528Y-81798290D01*
X151893451Y-81659464D01*
X151683014Y-81552240D01*
X151458386Y-81479253D01*
X151225115Y-81442307D01*
X151225110Y-81442307D01*
X150988926Y-81442307D01*
X150988921Y-81442307D01*
X150755649Y-81479253D01*
X150531021Y-81552240D01*
X150320584Y-81659464D01*
X150211568Y-81738669D01*
X150129508Y-81798290D01*
X150129506Y-81798292D01*
X150129505Y-81798292D01*
X149962503Y-81965294D01*
X149962503Y-81965295D01*
X149962501Y-81965297D01*
X149924980Y-82016940D01*
X149823675Y-82156373D01*
X149716451Y-82366810D01*
X149643464Y-82591438D01*
X149606518Y-82824709D01*
X149606518Y-83060904D01*
X149643465Y-83294176D01*
X149643465Y-83294179D01*
X149684468Y-83420371D01*
X149686463Y-83490212D01*
X149654218Y-83546370D01*
X148001437Y-85199151D01*
X148001430Y-85199158D01*
X147998068Y-85202521D01*
X147998066Y-85202523D01*
X147886262Y-85314327D01*
X147858103Y-85363101D01*
X147852349Y-85373066D01*
X147852349Y-85373067D01*
X147807205Y-85451257D01*
X147807205Y-85451258D01*
X147766281Y-85603986D01*
X147766281Y-85603988D01*
X147766281Y-85772089D01*
X147766282Y-85772102D01*
X147766282Y-87551002D01*
X147746597Y-87618041D01*
X147693793Y-87663796D01*
X147624635Y-87673740D01*
X147561079Y-87644715D01*
X147523305Y-87585938D01*
X147521224Y-87578850D01*
X147509819Y-87540008D01*
X147432031Y-87418968D01*
X147373173Y-87367967D01*
X147323299Y-87324750D01*
X147323297Y-87324748D01*
X147323294Y-87324746D01*
X147323290Y-87324744D01*
X147192419Y-87264976D01*
X147192414Y-87264975D01*
X147050000Y-87244500D01*
X144850000Y-87244500D01*
X144849997Y-87244500D01*
X144778059Y-87249644D01*
X144640005Y-87290182D01*
X144518969Y-87367967D01*
X144518965Y-87367971D01*
X144424750Y-87476700D01*
X144424744Y-87476709D01*
X144364976Y-87607580D01*
X144364975Y-87607585D01*
X144344500Y-87749999D01*
X144344500Y-88225508D01*
X144324815Y-88292547D01*
X144272011Y-88338302D01*
X144220500Y-88349508D01*
X143952130Y-88349508D01*
X143952123Y-88349509D01*
X143892516Y-88355916D01*
X143757671Y-88406210D01*
X143757664Y-88406214D01*
X143642455Y-88492460D01*
X143642452Y-88492463D01*
X143556206Y-88607672D01*
X143556202Y-88607679D01*
X143505908Y-88742525D01*
X143499501Y-88802124D01*
X143499500Y-88802143D01*
X140333856Y-88802143D01*
X140333856Y-82693206D01*
X141074500Y-82693206D01*
X141074500Y-83056794D01*
X141074905Y-83060904D01*
X141110137Y-83418630D01*
X141181064Y-83775212D01*
X141181067Y-83775223D01*
X141286614Y-84123165D01*
X141425754Y-84459078D01*
X141425756Y-84459083D01*
X141597140Y-84779720D01*
X141597151Y-84779738D01*
X141799140Y-85082035D01*
X141799150Y-85082049D01*
X142029807Y-85363106D01*
X142286893Y-85620192D01*
X142286898Y-85620196D01*
X142286899Y-85620197D01*
X142567956Y-85850854D01*
X142870268Y-86052853D01*
X142870277Y-86052858D01*
X142870279Y-86052859D01*
X143190916Y-86224243D01*
X143190918Y-86224243D01*
X143190924Y-86224247D01*
X143526836Y-86363386D01*
X143874767Y-86468930D01*
X143874773Y-86468931D01*
X143874776Y-86468932D01*
X143874787Y-86468935D01*
X144231369Y-86539862D01*
X144593206Y-86575500D01*
X144593209Y-86575500D01*
X144956791Y-86575500D01*
X144956794Y-86575500D01*
X145318631Y-86539862D01*
X145388045Y-86526054D01*
X145675212Y-86468935D01*
X145675223Y-86468932D01*
X145675223Y-86468931D01*
X145675233Y-86468930D01*
X146023164Y-86363386D01*
X146359076Y-86224247D01*
X146679732Y-86052853D01*
X146982044Y-85850854D01*
X147263101Y-85620197D01*
X147520197Y-85363101D01*
X147750854Y-85082044D01*
X147952853Y-84779732D01*
X148124247Y-84459076D01*
X148263386Y-84123164D01*
X148368930Y-83775233D01*
X148368932Y-83775223D01*
X148368935Y-83775212D01*
X148439862Y-83418630D01*
X148475500Y-83056794D01*
X148475500Y-82693206D01*
X148439862Y-82331369D01*
X148424253Y-82252897D01*
X148368935Y-81974787D01*
X148368932Y-81974776D01*
X148368931Y-81974773D01*
X148368930Y-81974767D01*
X148263386Y-81626836D01*
X148124247Y-81290924D01*
X148039703Y-81132754D01*
X147952859Y-80970279D01*
X147952858Y-80970277D01*
X147952853Y-80970268D01*
X147750854Y-80667956D01*
X147520197Y-80386899D01*
X147520196Y-80386898D01*
X147520192Y-80386893D01*
X147263106Y-80129807D01*
X146982049Y-79899150D01*
X146982048Y-79899149D01*
X146982044Y-79899146D01*
X146679732Y-79697147D01*
X146679727Y-79697144D01*
X146679720Y-79697140D01*
X146359083Y-79525756D01*
X146359078Y-79525754D01*
X146023165Y-79386614D01*
X145675223Y-79281067D01*
X145675212Y-79281064D01*
X145318630Y-79210137D01*
X145046111Y-79183296D01*
X144956794Y-79174500D01*
X144593206Y-79174500D01*
X144510679Y-79182628D01*
X144231369Y-79210137D01*
X143874787Y-79281064D01*
X143874776Y-79281067D01*
X143526834Y-79386614D01*
X143190921Y-79525754D01*
X143190916Y-79525756D01*
X142870279Y-79697140D01*
X142870261Y-79697151D01*
X142567964Y-79899140D01*
X142567950Y-79899150D01*
X142286893Y-80129807D01*
X142029807Y-80386893D01*
X141799150Y-80667950D01*
X141799140Y-80667964D01*
X141597151Y-80970261D01*
X141597140Y-80970279D01*
X141425756Y-81290916D01*
X141425754Y-81290921D01*
X141286614Y-81626834D01*
X141181067Y-81974776D01*
X141181064Y-81974787D01*
X141110137Y-82331369D01*
X141088676Y-82549277D01*
X141074500Y-82693206D01*
X140333856Y-82693206D01*
X140333856Y-82502706D01*
X140333974Y-82497297D01*
X140334359Y-82488480D01*
X140350743Y-82113224D01*
X140351681Y-82102496D01*
X140401507Y-81724032D01*
X140403380Y-81713402D01*
X140486004Y-81340714D01*
X140488802Y-81330276D01*
X140501210Y-81290924D01*
X140603586Y-80966227D01*
X140607273Y-80956095D01*
X140753359Y-80603412D01*
X140757917Y-80593638D01*
X140934178Y-80255045D01*
X140939573Y-80245700D01*
X141144681Y-79923744D01*
X141150871Y-79914905D01*
X141383252Y-79612060D01*
X141390190Y-79603791D01*
X141648082Y-79322352D01*
X141655708Y-79314726D01*
X141937147Y-79056834D01*
X141945416Y-79049896D01*
X142248261Y-78817515D01*
X142257100Y-78811325D01*
X142579056Y-78606217D01*
X142588401Y-78600822D01*
X142926994Y-78424561D01*
X142936768Y-78420003D01*
X143289451Y-78273917D01*
X143299583Y-78270230D01*
X143663641Y-78155443D01*
X143674070Y-78152648D01*
X144046758Y-78070024D01*
X144057388Y-78068151D01*
X144435852Y-78018325D01*
X144446580Y-78017387D01*
X144830653Y-78000617D01*
X144836062Y-78000500D01*
X144899248Y-78000500D01*
X169767464Y-78000500D01*
X169830650Y-78000500D01*
X169836058Y-78000617D01*
G37*
%TD.AperFunction*%
%TD*%
M02*
